<?xml version="1.0" encoding="UTF-8" standalone="no"?>
<!DOCTYPE svg PUBLIC "-//W3C//DTD SVG 1.1//EN" "http://www.w3.org/Graphics/SVG/1.1/DTD/svg11.dtd">
<svg xmlns="http://www.w3.org/2000/svg" xmlns:xlink="http://www.w3.org/1999/xlink" version="1.1" width="2100pt" height="2100pt" viewBox="0 0 2100 2100">
<g enable-background="new">
<clipPath id="cp0">
<path d="M 710.243 81.6131 L 1364.37 81.6131 L 1364.37 2058.84 L 710.243 2058.84 Z "/>
</clipPath>
<g clip-path="url(#cp0)">
<path transform="matrix(1,0,0,1,755.9714,1880.3414)" d="M 0 0 C -5.0039 -3.5312 -9.418 -8.1172 -13.043 -13.0312 C -14.1055 -14.4687 -15.1836 -16.0781 -15.3945 -17.8906 C -15.4618 -18.4567 -15.1169 -18.6233 -14.6562 -18.6089 C -12.6212 -25.3732 -10.1433 -31.8336 -6.8516 -38.1055 C -3.1289 -45.1992 .3906 -52.3711 3.5547 -59.7344 C 6.7812 -67.2422 9.6172 -74.9258 13.0469 -82.3477 C 16.5586 -89.9336 20.4766 -97.3164 24.5391 -104.6172 C 28.668 -112.0391 32.9961 -119.3438 37.0195 -126.8203 C 41.1797 -134.5469 45.3203 -142.2891 49.5273 -149.9922 C 58.0117 -165.5312 66.8789 -180.8633 75.3633 -196.4062 C 79.5625 -204.1055 83.7773 -211.7812 87.793 -219.5781 C 91.793 -227.3398 95.6836 -235.1562 99.5625 -242.9805 C 103.2734 -250.4609 106.9336 -257.9727 111.0156 -265.2617 C 115.1758 -272.6836 119.5625 -279.9766 123.7773 -287.3672 C 132.5781 -302.7969 141.3672 -318.2383 150.4453 -333.5078 C 154.7383 -340.7227 158.9805 -347.9609 163.0586 -355.3008 C 167.2695 -362.8828 171.3398 -370.5508 175.7344 -378.0312 C 184.5742 -393.0664 193.9766 -407.7187 203.4687 -422.3437 C 212.832 -436.7695 221.7656 -451.4727 230.9414 -466.0156 C 235.6406 -473.4609 240.4023 -480.8594 244.8633 -488.4531 C 249.2852 -495.9805 253.4062 -503.6836 257.5039 -511.3906 C 265.6172 -526.6602 273.9883 -541.8047 282.4062 -556.9102 C 290.6914 -571.7734 298.9766 -586.6055 307.8164 -601.1523 C 312.4492 -608.7734 317.25 -616.2891 321.9141 -623.8906 C 326.3984 -631.1992 330.6758 -638.6406 335.0625 -646.0078 C 343.9883 -660.9922 353.0625 -675.8828 361.9375 -690.8984 C 366.3125 -698.3047 370.6328 -705.7461 375 -713.1602 C 379.3789 -720.5977 383.8711 -727.9687 388.1641 -735.4531 C 396.7656 -750.4648 404.875 -765.7461 413.0937 -780.9648 C 421.1094 -795.8125 429.3906 -810.5625 438.0273 -825.0547 C 443.887 -834.8953 450.099 -844.5406 454.3418 -855.2278 C 454.5139 -855.7262 454.6753 -856.2255 454.8281 -856.7305 C 454.8867 -857.832 455.4687 -858.4102 456.5703 -858.4727 C 458.1641 -858.375 459.6602 -857.9258 461.0586 -857.1289 C 463.3516 -855.9531 465.543 -854.6016 467.625 -853.082 C 471.9766 -850.0117 476.0391 -846.5117 479.9375 -842.8945 C 485.6602 -837.5781 491.0977 -831.875 495.9297 -825.7344 C 497.8164 -823.3789 499.5586 -820.9258 501.1641 -818.375 C 502.4297 -816.2891 504.3125 -813.4297 504.2227 -810.8203 C 504.1289 -808.2109 502.8828 -805.7539 501.7969 -803.418 C 500.9609 -801.6172 500.1055 -799.832 499.2031 -798.0625 C 497.418 -794.5547 495.4297 -791.1484 493.418 -787.7656 C 489.1719 -780.6289 484.6523 -773.6562 480.3945 -766.5234 C 471.8437 -752.1992 463.1797 -737.9492 455.0508 -723.3789 C 446.5977 -708.2227 438.0039 -693.1367 428.9961 -678.3047 C 420.1602 -663.75 411.2539 -649.2344 402.293 -634.7578 C 393.1992 -620.0742 383.7734 -605.5937 374.8437 -590.8086 C 365.7969 -575.832 356.0156 -561.3398 346.7422 -546.5039 C 337.8242 -532.2461 329.3594 -517.7109 320.8984 -503.1797 C 312.2266 -488.2891 303.2148 -473.6016 294.4648 -458.7617 C 285.4766 -443.5078 275.3047 -429.0664 265.3594 -414.4336 C 255.6914 -400.207 246.3984 -385.7461 236.5117 -371.6641 C 226.8164 -357.8555 217.2617 -343.8594 208.4375 -329.4805 C 203.9531 -322.1719 199.5937 -314.7852 195.0273 -307.5273 C 190.5234 -300.375 185.7812 -293.3867 181.1953 -286.2891 C 171.7461 -271.668 162.3281 -257.0312 152.7969 -242.4687 C 148.2969 -235.5937 143.7266 -228.7578 139.5352 -221.6875 C 135.1406 -214.2812 130.8945 -206.7891 126.6641 -199.2891 C 122.5352 -191.9648 118.3516 -184.668 114.0078 -177.4727 C 109.5156 -170.0312 104.7813 -162.7305 100.1328 -155.3867 C 90.8086 -140.6641 80.9844 -126.2734 71.5625 -111.6133 C 66.9648 -104.4648 62.5156 -97.2148 57.832 -90.1211 C 53.2695 -83.2188 48.5508 -76.4219 44.1484 -69.4141 C 39.9414 -62.7109 36.0664 -55.8477 32.4609 -48.8086 C 28.8047 -41.668 25.1602 -34.5313 21.1563 -27.5781 C 16.0269 -18.6693 10.0869 -10.3051 6.343 -.6808 C 6.0737 .0726 5.8122 .8287 5.5234 1.5781 C 5.3268 2.0913 4.9404 2.2902 4.4581 2.2903 C 2.976 2.2904 .5865 .4126 0 0 Z "/>
<path transform="matrix(1,0,0,1,1258.11,1095.6638)" d="M 0 0 C -1.7601 -.5175 -3.4275 -1.2744 -5.0258 -2.1705 C -5.1317 -1.8965 -5.2722 -1.627 -5.4531 -1.3633 C -5.8984 -1.1953 -6.3477 -1.0234 -6.7969 -.8516 C -7.6758 -.9883 -8.5547 -1.1289 -9.4336 -1.2656 C -12.0156 -1.9336 -14.3945 -3.5469 -16.6094 -4.9648 C -23.3555 -9.2773 -29.3438 -14.5 -35.2656 -19.8594 C -39.9219 -24.0703 -44.3633 -28.6875 -48.6016 -33.3047 C -52.8906 -37.9805 -57.0234 -42.7578 -61.0742 -47.6328 C -68.0508 -56.0313 -74.7656 -64.6328 -81.5391 -73.1913 C -88.7383 -82.289 -95.8281 -91.4921 -102.2383 -101.1679 C -107.6278 -109.3082 -112.1368 -118.009 -116.8378 -126.5643 C -121.7031 -135.084 -126.8009 -143.4556 -131.9453 -151.8124 C -137.3945 -160.6679 -142.6719 -169.6249 -148.0547 -178.5195 C -158.418 -195.6484 -169.2031 -212.5078 -179.2969 -229.8007 C -200.5625 -266.2187 -221.4375 -302.8671 -242.5156 -339.3984 C -252.5675 -356.8146 -263.4911 -373.6946 -274.5674 -390.4719 C -279.8599 -398.34 -285.2187 -406.1581 -290.6172 -413.9531 C -297.2852 -423.582 -303.6523 -433.3945 -309.9258 -443.2812 C -321.3672 -461.3242 -333.0156 -479.2343 -344.4805 -497.2617 C -348.0985 -502.9448 -351.812 -508.5665 -355.5424 -514.1778 C -362.9835 -525.1467 -370.449 -536.0857 -377.7969 -547.1171 C -383.9232 -556.3154 -389.8178 -565.6664 -395.8928 -574.8974 C -402.8773 -585.0833 -409.7959 -595.2995 -416.6445 -605.5781 C -415.7617 -604.2538 -414.8789 -602.9296 -413.9961 -601.6054 C -418.6484 -608.582 -423.5195 -615.4101 -428.1953 -622.3749 C -433.707 -630.5937 -439.1406 -638.8554 -444.5078 -647.1718 C -453.6912 -661.4072 -461.9713 -676.1901 -470.1708 -691.0084 C -479.7507 -707.9899 -489.8478 -724.6926 -499.7852 -741.4648 C -504.4844 -749.3945 -509.5742 -757.1015 -514.3828 -764.9687 C -520.0469 -774.2343 -524.7891 -783.9413 -529.6172 -793.6562 C -531.6328 -797.7187 -533.7344 -801.7382 -535.8906 -805.7304 C -538.4727 -810.5156 -541.1328 -815.3007 -542.9727 -820.4374 C -546.3164 -829.7773 -547.6172 -840.0429 -547.1953 -849.9374 C -546.7812 -859.6132 -546.0625 -869.2812 -545.6953 -878.957 C -545.3516 -888.0117 -545.4219 -897.0703 -545.1758 -906.1249 C -544.9141 -915.7656 -544.5273 -925.4062 -544.1914 -935.0468 C -543.8437 -944.9648 -543.1836 -954.8671 -542.8242 -964.7851 C -542.4805 -974.3359 -542.1641 -983.8828 -541.8164 -993.4335 C -541.6602 -997.7538 -541.4648 -1002.0742 -541.2461 -1006.3945 C -541.1445 -1008.3867 -541.2891 -1011.0585 -540.1641 -1012.8007 C -539.6914 -1013.5351 -538.8906 -1013.7226 -538.043 -1013.7382 C -535.1172 -1013.8007 -532.0156 -1011.7773 -529.6602 -1010.3476 C -525.1211 -1007.5976 -520.9258 -1004.1992 -516.9102 -1000.7499 C -511.625 -996.207 -506.5859 -991.3242 -501.8477 -986.2187 C -495.4687 -979.3554 -489.6719 -972.0742 -485.1836 -963.8398 C -484.4102 -962.4257 -483.668 -960.996 -482.9219 -959.5703 C -481.8141 -957.4404 -480.6794 -955.3282 -479.5282 -953.2224 C -478.3783 -951.23 -477.196 -949.2625 -475.9664 -947.3186 C -472.7498 -942.6106 -469.4718 -937.9462 -466.2187 -933.2656 C -461.4961 -926.4648 -456.9414 -919.5468 -452.3906 -912.6288 C -445.0185 -901.4279 -438.205 -889.8661 -430.8743 -878.6392 C -420.9574 -864.0903 -410.4727 -849.95 -400.9648 -835.1249 C -391.3463 -820.1332 -382.7645 -804.4318 -374.1045 -788.8694 C -370.1169 -781.7827 -366.0383 -774.7563 -361.7617 -767.8398 C -356.8555 -759.8984 -351.7969 -752.0507 -346.8984 -744.1054 C -341.9766 -736.1249 -336.9766 -728.1796 -332.3203 -720.0429 C -327.3813 -711.4158 -322.5975 -702.7023 -317.7807 -694.0067 C -312.7404 -685.1398 -307.5991 -676.3441 -302.332 -667.6093 C -297.0195 -658.789 -291.293 -650.2148 -285.625 -641.621 C -274.3867 -624.5703 -263.7461 -607.1054 -253.0312 -589.7226 C -241.8737 -571.6239 -230.6239 -553.5594 -218.958 -535.7869 C -213.2799 -527.6097 -207.3914 -519.5945 -201.582 -511.5117 C -194.8164 -502.0976 -188.4883 -492.3203 -182.3789 -482.4687 C -171.0298 -464.1682 -161.5159 -444.85 -151.1991 -425.972 C -147.2073 -418.9913 -143.083 -412.11 -138.7535 -405.3339 C -127.6737 -389.1245 -115.7587 -373.5055 -104.7852 -357.2265 C -97.8789 -346.9765 -91.1484 -336.6757 -84.8789 -326.0273 C -79.1484 -316.2929 -74.0117 -306.2226 -68.582 -296.3203 C -68.2848 -295.7784 -67.9875 -295.236 -67.6902 -294.6933 C -57.9034 -277.5696 -47.3795 -260.9285 -36.9688 -244.1796 C -26.1133 -226.707 -15.0547 -209.3867 -3.7656 -192.1874 C -3.5667 -191.884 -3.3676 -191.5813 -3.1678 -191.2783 C -2.0013 -189.682 -.8843 -188.0398 .1091 -186.3437 C 2.8972 -182.167 5.6958 -177.996 8.3906 -173.7578 C 12.6016 -167.1328 16.8086 -160.5078 21.043 -153.8945 C 28.5585 -142.1622 36.0414 -130.4014 43.6801 -118.7438 C 49.4259 -110.1856 55.1277 -101.6307 60.3008 -92.707 C 65.2695 -84.1288 70.1211 -75.4843 75.0469 -66.8828 C 80.4258 -57.4883 86.3125 -48.3633 91.0391 -38.6055 C 93.6016 -33.3086 95.7891 -27.7578 97.8359 -22.2422 C 98.9102 -19.3438 99.6406 -16.5703 100.0781 -13.4805 C 100.1953 -12.6523 99.957 -10.9883 99.3945 -10.3906 C 98.5273 -9.4687 97.582 -9.2812 96.3555 -9.1523 C 94.0742 -8.9141 91.6797 -10.5 89.6641 -11.3555 C 87.0859 -12.6758 84.6289 -14.1953 82.2891 -15.9023 C 80.4336 -17.2305 78.6016 -18.5938 76.8008 -19.9922 C 67.1328 -27.6016 58.3359 -36.4766 50.3047 -45.7734 C 45.2344 -51.6406 40.5273 -57.8828 36.3633 -64.4258 C 34.4063 -67.5 32.4766 -70.5781 30.6133 -73.7109 C 26.9531 -79.8749 23.3984 -86.1054 19.8281 -92.3203 C 13.3518 -103.5862 6.6924 -114.679 -.4104 -125.5469 C -3.8575 -130.531 -7.3748 -135.4464 -10.9745 -140.3208 C -16.9012 -148.1282 -22.833 -155.9389 -28.6055 -163.8632 C -35.0547 -172.7226 -40.9609 -181.9999 -46.7695 -191.289 C -56.807 -207.3247 -65.8025 -224.0114 -74.9974 -240.5439 C -80.0636 -249.4709 -85.098 -258.4504 -90.5195 -267.1679 C -96.0859 -276.1132 -101.7109 -285.0234 -107.2578 -293.9804 C -119.1563 -313.2031 -129.5781 -333.2187 -139.9453 -353.289 C -144.4094 -361.9344 -148.9644 -370.5244 -153.6174 -379.0712 C -160.6177 -391.4473 -167.8741 -403.6274 -175.6565 -415.5364 C -176.8855 -417.3788 -178.1136 -419.2225 -179.3437 -421.0663 C -179.3472 -421.0725 -179.3507 -421.0788 -179.3541 -421.085 C -179.937 -421.9611 -180.5189 -422.838 -181.0977 -423.7148 C -186.6211 -432.0859 -192.0391 -440.5273 -197.4453 -448.9726 C -207.8984 -465.2957 -217.0902 -482.3411 -226.3922 -499.3329 C -226.9246 -500.1875 -227.4288 -501.0553 -227.8958 -501.9376 C -229.9758 -505.0871 -232.0498 -508.2368 -234.1216 -511.3916 C -242.423 -523.2666 -251.0063 -534.9531 -259.3242 -546.8163 C -264.3232 -553.9484 -269.2838 -561.1021 -274.2486 -568.2548 C -277.0228 -572.1731 -279.7525 -576.1208 -282.5352 -580.0312 C -286.2969 -585.3242 -290.1797 -590.5312 -293.9219 -595.8359 C -295.7422 -598.332 -297.3594 -600.9531 -298.7695 -603.6992 C -299.4492 -605.1445 -301.4687 -608.9179 -299.8008 -610.5859 C -299.793 -610.5937 -299.7849 -610.6013 -299.777 -610.6089 C -307.8138 -622.2317 -315.954 -633.7832 -324.236 -645.2209 C -329.9972 -652.8245 -335.8008 -660.3944 -341.5156 -668.0312 C -348.2969 -677.0859 -354.2773 -686.789 -360.2891 -696.3632 C -370.7907 -713.0779 -380.1271 -730.4898 -389.5821 -747.8061 C -399.7746 -765.5626 -411.2561 -782.5421 -422.2109 -799.8398 C -423.1622 -801.3414 -424.1112 -802.8457 -425.0569 -804.351 C -427.6046 -806.8225 -430.0628 -809.3682 -432.4492 -811.9062 C -438.1328 -817.9531 -443.4219 -824.3085 -447.8516 -831.3398 C -448.9377 -833.0654 -449.8721 -834.8981 -450.8126 -836.7196 C -452.4957 -838.4639 -454.1278 -840.2554 -455.7031 -842.0898 C -459.1953 -846.1523 -462.9648 -850.6015 -464.793 -855.7187 C -466.7735 -861.2693 -468.9698 -866.7291 -471.1585 -872.194 C -472.9738 -876.5721 -474.8023 -880.9457 -476.6371 -885.3163 C -477.0099 -886.0338 -477.3812 -886.7524 -477.75 -887.4726 C -478.6133 -889.1601 -479.4766 -890.8476 -480.3437 -892.5351 C -481.7057 -895.1982 -483.5644 -898.2634 -483.4661 -901.369 C -485.2256 -904.0895 -486.9768 -906.8128 -488.724 -909.5409 C -488.7914 -908.3423 -488.8599 -907.1437 -488.9297 -905.9453 C -489.5039 -896.0663 -490.1523 -886.1992 -490.6172 -876.3124 C -491.0469 -867.0859 -491.2383 -857.8398 -491.4883 -848.6015 C -491.7734 -837.9609 -492.4102 -827.3007 -493.0156 -816.6757 C -493.5425 -807.4508 -494.0837 -798.2576 -493.2104 -789.0763 C -491.9225 -787.5604 -490.6643 -786.0234 -489.4375 -784.4648 C -487.2148 -781.6913 -485.1602 -778.8007 -483.2656 -775.7929 C -481.9478 -773.7169 -480.7734 -771.5546 -479.6303 -769.3743 C -476.5713 -764.2042 -473.4396 -759.0826 -470.26 -753.9905 C -467.2041 -749.4994 -464.1754 -744.9923 -461.3516 -740.3437 C -460.2717 -738.5649 -459.2048 -736.7771 -458.151 -734.9822 C -455.6979 -731.1846 -453.237 -727.3932 -450.7773 -723.5976 C -439.3735 -705.9938 -428.3428 -688.1575 -416.8771 -670.5963 C -411.3907 -662.6755 -405.8701 -654.8006 -400.1289 -647.0585 C -393.9492 -638.7304 -387.7031 -630.4413 -381.6797 -621.9999 C -374.9219 -612.5312 -368.0859 -603.0624 -361.918 -593.1913 C -355.6484 -583.164 -349.6016 -573.0507 -343.918 -562.6757 C -333.5957 -543.8284 -323.5111 -524.8517 -313.1249 -506.0377 C -302.8297 -487.8181 -292.3947 -469.6824 -282.0625 -451.4843 C -273.2302 -435.931 -264.3369 -420.428 -255.0396 -405.1547 C -243.8778 -388.7501 -232.491 -372.5018 -221.1875 -356.1874 C -214.6055 -346.6874 -208.1797 -337.0624 -201.8672 -327.3749 C -196.4609 -319.0742 -191.2422 -310.6406 -185.8398 -302.3398 C -180.5422 -294.1995 -175.2725 -286.0462 -169.9142 -277.9427 C -163.9156 -268.9784 -157.9712 -259.9831 -152.1289 -250.9101 C -146.7305 -242.5351 -141.5859 -234.0038 -136.3789 -225.5078 C -126.1758 -208.8671 -115.8125 -192.3593 -106.0703 -175.4413 C -103.6361 -171.2126 -101.2382 -166.9675 -98.8711 -162.7067 C -94.6437 -156.1316 -90.4042 -149.5636 -86.2178 -142.9631 C -85.0123 -141.424 -83.8337 -139.8644 -82.6836 -138.2968 C -79.375 -133.7851 -76.1953 -129.2031 -73.1133 -124.5312 C -67.5078 -116.0351 -62.3945 -107.2265 -57.6992 -98.1992 C -54.7484 -92.5331 -51.9963 -86.7783 -49.3127 -80.9874 C -47.3578 -77.3928 -45.417 -73.7892 -43.457 -70.1953 C -42.1144 -67.7305 -40.7604 -65.2773 -39.3999 -62.8281 C -33.2677 -51.8951 -27.173 -40.933 -20.3892 -30.3866 C -18.5377 -27.6821 -16.6196 -25.0238 -14.6836 -22.3789 C -14.0898 -21.5684 -13.5082 -20.751 -12.9352 -19.9281 C -12.5734 -19.9991 -12.208 -20.0924 -11.8278 -20.2081 C -10.2803 -20.9185 -8.9078 -21.8235 -7.5742 -22.8867 C -6.8711 -23.4492 -6.207 -24.5898 -5.2578 -24.7344 C -3.793 -24.9531 -1.7148 -23.2344 -.6602 -22.4883 C 2.5352 -20.2344 5.4297 -17.4883 8.0859 -14.6289 C 9.9766 -12.5898 11.8516 -10.4336 13.2969 -8.0469 C 13.458 -7.7821 15.6195 -4.0927 13.939 -4.1716 C 12.8313 -3.4089 11.8461 -2.4594 10.7578 -1.668 C 9.7344 -.9219 8.6484 -.2695 7.4531 .1602 C 6.324 .5641 5.2731 .733 4.2321 .7332 C 2.8567 .7332 1.4987 .4381 0 0 Z "/>
<path transform="matrix(1,0,0,1,768.4875,1938.8765)" d="M 0 0 C -1.1133 -.3828 -2.1641 -.8984 -3.1523 -1.543 C -5.4531 -2.9375 -7.5781 -4.6562 -9.6133 -6.4062 C -13.0039 -9.3203 -16.1914 -12.5078 -19.1094 -15.9023 C -20.3594 -17.3438 -21.543 -18.8398 -22.6602 -20.3906 C -23.6719 -21.8281 -25.1484 -23.7266 -25.5156 -25.5117 C -26.5898 -30.7422 -26.0742 -36.1758 -25.9648 -41.4727 C -25.8711 -46 -26.0547 -50.5391 -26.2188 -55.0625 C -26.3906 -59.7891 -26.7383 -64.5078 -26.8359 -69.2344 C -26.9336 -74.1445 -26.6992 -79.0195 -26.2031 -83.9063 C -25.9883 -86.043 -25.7109 -88.1953 -25.2109 -90.2891 C -24.8789 -91.6758 -24.4844 -93.3242 -22.8711 -93.582 C -22.3047 -93.6719 -21.0938 -93.1406 -20.6758 -92.9414 C -19.668 -92.4648 -18.4883 -91.6563 -17.5938 -91.0234 C -14.2266 -88.6484 -11.2187 -85.7383 -8.4219 -82.7266 C -4.8047 -78.8203 -1.4336 -74.4453 -.0078 -69.2383 C .4297 -67.6367 .4336 -66.0078 .25 -64.3789 C .1719 -63.6914 -.1133 -62.8906 -.0937 -62.2031 C -.1367 -62.4727 -.1758 -62.7422 -.2187 -63.0117 C -.2187 -63.0078 -.2187 -63.0078 -.2187 -63.0039 C -.0234 -61.8008 -.3047 -61.2578 -1.625 -61.5977 C -2.4492 -61.8828 -3.2266 -62.2656 -3.9609 -62.7422 C -3.9802 -62.7539 -3.9995 -62.7659 -4.0187 -62.7776 C -3.9954 -60.938 -3.944 -59.0989 -3.8437 -57.2617 C -3.5391 -51.7969 -2.8477 -46.3945 -2.0352 -40.9883 C -.5195 -30.957 .4766 -20.9141 1.0078 -10.7852 C 1.1423 -8.2581 1.304 -5.7312 1.6187 -3.223 C 1.7038 -2.7809 1.7951 -2.3425 1.8984 -1.8984 C 2.2026 -.5753 1.8849 .1288 .873 .1288 C .6243 .1289 .3337 .0863 0 0 Z "/>
<path transform="matrix(1,0,0,1,816.6165,1772.1477)" d="M 0 0 C -3.4883 -1.6445 -6.5781 -4.4727 -9.375 -7.0664 C -12.2148 -9.707 -14.918 -12.5391 -17.3164 -15.5898 C -18.2539 -16.7578 -19.1211 -17.9766 -19.918 -19.2422 C -20.5391 -20.2656 -21.4961 -21.7109 -21.4336 -22.9961 C -21.2813 -26.2109 -19.3711 -29.3789 -18.0078 -32.2656 C -16.9258 -34.5586 -15.7891 -36.8242 -14.582 -39.0547 C -13.2734 -41.4688 -11.9258 -43.8633 -10.5 -46.207 C -8.9991 -48.6718 -7.0451 -50.9469 -5.75 -53.5217 C -5.687 -53.73 -5.6354 -53.9308 -5.5962 -54.1348 C -6.2507 -55.2711 -7.592 -57.8828 -5.9141 -57.8828 C -4.0937 -57.8828 -2.2344 -56.3945 -.8594 -55.4258 C 2.668 -52.9336 5.8828 -49.8789 8.8125 -46.7227 C 11.0469 -44.3164 13.2383 -41.7383 14.9453 -38.918 C 15.7539 -37.5859 16.8164 -35.875 16.8008 -34.2383 C 16.7734 -30.9531 14.1211 -27.8867 12.625 -25.0781 C 10.1606 -20.4481 8.2667 -15.5094 6.3843 -10.6226 C 6.2577 -10.2903 6.1315 -9.9587 6.0048 -9.6274 C 5.9861 -9.5784 5.9674 -9.5292 5.9485 -9.4799 C 5.962 -9.5153 5.9755 -9.5507 5.989 -9.5862 C 5.9666 -9.5275 5.944 -9.4687 5.9215 -9.4102 C 4.7874 -6.4698 3.2664 -3.329 3.0937 -.1953 C 3.0578 .458 2.6635 .671 2.1602 .671 C 1.4054 .6711 .4054 .1921 0 0 Z "/>
<path transform="matrix(1,0,0,1,763.8557,2057.3094)" d="M 0 0 C -3.4336 -1.6172 -6.7148 -4.0391 -9.6406 -6.4258 C -16.7305 -12.2109 -23.3828 -18.4805 -29.3516 -25.4297 C -32.2305 -28.7813 -35.0625 -32.2773 -37.3594 -36.0664 C -38.4336 -37.832 -39.5273 -39.7305 -40.0313 -41.7617 C -40.6602 -44.3164 -40.4063 -47.0625 -40.3672 -49.6641 C -40.3047 -54.043 -40.2734 -58.4258 -40.2305 -62.8047 C -40.1367 -72.3867 -40.1055 -81.9688 -40.1758 -91.5508 C -40.2422 -101.0156 -40.5117 -110.4609 -41.0313 -119.9141 C -41.5703 -129.6953 -42.125 -139.4609 -42.0234 -149.2617 C -41.9219 -159.0898 -41.4883 -168.9297 -40.7148 -178.7266 C -40.3672 -183.1445 -40.0039 -187.5508 -39.2695 -191.9219 C -38.5273 -196.3398 -37.418 -200.6211 -36.0078 -204.875 C -32.7969 -214.5859 -27.4648 -223.4531 -22.7227 -232.4609 C -20.3477 -236.9687 -18.0508 -241.5117 -15.5859 -245.9766 C -13.4648 -249.8125 -11.0937 -253.3828 -8.4258 -256.8594 C -3.457 -263.3203 1.3086 -269.9727 5.293 -277.0937 C 9.8828 -285.293 13.5586 -293.8906 17.2969 -302.4961 C 24.875 -319.9453 32.5156 -337.5039 41.6484 -354.2031 C 46.3164 -362.7383 51.2617 -371.043 56.75 -379.0781 C 62.1406 -386.9687 67.9336 -394.5703 73.5 -402.332 C 79.1289 -410.1758 84.918 -417.9141 90.7031 -425.6445 C 96.7305 -433.6953 102.2148 -442.0898 107.625 -450.5664 C 112.5234 -458.2422 117.2539 -466.0234 122.1055 -473.7266 C 124.6016 -477.6836 126.9414 -481.7344 129.457 -485.6836 C 130.4258 -487.207 131.4023 -488.7266 132.332 -490.2773 C 133.0474 -491.4742 133.8777 -492.6864 134.4607 -493.9722 C 134.3088 -495.6464 137.0863 -494.3827 137.543 -494.168 C 141.0195 -492.5273 144.0937 -489.7109 146.8789 -487.125 C 149.7109 -484.5 152.3984 -481.6797 154.7891 -478.6406 C 155.7227 -477.4766 156.5859 -476.2617 157.3789 -475 C 157.9414 -474.0742 159.0391 -472.4687 158.8906 -471.2656 C 158.7734 -470.3242 157.668 -469.1719 157.1992 -468.418 C 156 -466.4883 154.8906 -464.5039 153.7344 -462.5508 C 151.1953 -458.2578 148.6797 -453.957 146.2031 -449.6328 C 143.7422 -445.3398 141.1875 -441.1055 138.7773 -436.7852 C 136.3047 -432.3555 133.9531 -427.8594 131.5117 -423.4102 C 121.8828 -405.8516 110.7734 -389.1836 100.5039 -372.0039 C 92.0273 -357.8203 83.4727 -343.75 76.2422 -328.8711 C 69.1616 -314.3037 63.1385 -299.2064 57.3453 -284.0876 C 50.6707 -266.3513 45.1394 -248.0371 35.2578 -231.7422 C 30.8906 -224.5391 25.6406 -217.7969 21.9336 -210.2187 C 19.7109 -205.6797 17.8359 -200.9883 15.8906 -196.3281 C 13.8242 -191.3828 11.5469 -186.5273 9.3945 -181.6172 C 8.61 -179.8193 7.8597 -178.0079 7.1364 -176.1862 C 5.6108 -172.0669 4.2615 -167.9177 3.2109 -163.6445 C 2.0977 -159.1016 1.5859 -154.4062 1.1992 -149.75 C .375 -139.8789 .4062 -129.9102 .4062 -120.0117 C .4078 -115.8923 .5107 -111.7793 .6836 -107.6691 C 3.0157 -111.9788 5.3265 -116.3019 7.75 -120.5586 C 12.6406 -129.1445 17.8438 -137.5 23.0898 -145.8711 C 28.3789 -154.3086 33.0938 -163.1094 37.8555 -171.8437 C 42.7813 -180.8906 47.6602 -189.9609 52.4805 -199.0625 C 61.9844 -217.0039 70.3594 -235.5078 79.6172 -253.5703 C 88.7617 -271.4141 98.9102 -288.7305 109.1992 -305.9297 C 119.7266 -323.5234 130.0234 -341.2266 140.0391 -359.1172 C 149.957 -376.8281 159.4727 -394.75 169.6289 -412.332 C 179.7305 -429.8164 189.9102 -447.2578 200.1523 -464.6641 C 205.3945 -473.5742 210.7617 -482.4062 216.1953 -491.1992 C 221.5742 -499.9023 227.1914 -508.4531 232.5469 -517.1758 C 243.1133 -534.3906 253.5156 -551.6484 263.2461 -569.3555 C 268.2734 -578.5039 273.2969 -587.6562 278.4258 -596.75 C 283.5078 -605.7617 288.9883 -614.543 294.0547 -623.5703 C 304 -641.293 313.9219 -659.0195 323.9492 -676.6953 C 328.9648 -685.5312 333.957 -694.3711 339.3203 -703 C 344.918 -712 350.6719 -720.8945 356.3516 -729.8437 C 367.2578 -747.0234 377.6094 -764.5508 388.2617 -781.8867 C 398.8086 -799.0586 409.332 -816.25 420.1758 -833.2383 C 431.0156 -850.2227 441.0664 -867.6953 452.3828 -884.375 C 463.9531 -901.4258 475.4531 -918.582 486.0039 -936.2891 C 496.2461 -953.4805 506.5547 -970.6367 516.2539 -988.1445 C 520.9609 -996.6406 525.6914 -1005.1172 530.332 -1013.6445 C 533.1133 -1018.7578 535.7969 -1024.1563 539.1953 -1028.9063 C 540.4414 -1029.6758 541.7578 -1029.7461 543.1484 -1029.1211 C 545.5898 -1028.2774 547.8945 -1027.1445 550.0664 -1025.7305 C 559.2617 -1020.1523 567.4492 -1012.5937 575.0195 -1005.0234 C 581.4336 -998.6133 587.6133 -991.8047 592.8516 -984.3867 C 594.7266 -981.8164 596.3867 -979.1172 597.8398 -976.2891 C 598.8242 -974.2031 600.2656 -971.4648 598.9023 -969.1992 C 597.8633 -967.4727 596.668 -965.8477 595.6328 -964.1211 C 593.957 -961.3203 592.3867 -958.457 590.7305 -955.6484 C 585.9883 -947.5977 581.4453 -939.4297 576.6055 -931.4375 C 571.625 -923.207 566.3477 -915.1641 561.2578 -907.0039 C 555.8555 -898.3437 550.6133 -889.5937 545.457 -880.7852 C 540.4297 -872.1953 534.9258 -863.8828 529.6094 -855.4727 C 524.0664 -846.6992 518.4531 -837.9805 512.6797 -829.3555 C 506.9336 -820.7656 501.3125 -812.1172 495.8125 -803.3633 C 490.6016 -795.0781 485.5 -786.7422 480.0781 -778.5898 C 474.7266 -770.5469 469.0586 -762.7148 463.7305 -754.6602 C 458.0586 -746.0859 452.5508 -737.4141 447.0781 -728.7148 C 436.0312 -711.1523 425.4805 -693.2812 414.4609 -675.6953 C 403.5937 -658.3555 392.5508 -641.1406 382.3711 -623.3828 C 372.3594 -605.918 362.5508 -588.3086 351.6094 -571.4023 C 340.4023 -554.0937 330.2773 -536.1484 320.2891 -518.1172 C 315.2852 -509.0898 310.375 -500.0195 304.9453 -491.2383 C 299.6172 -482.625 294.1719 -474.082 288.6836 -465.5742 C 266.8906 -431.8008 244.8125 -398.2031 223.9336 -363.8516 C 213.293 -346.3477 202.5977 -328.8867 192.2617 -311.1992 C 182.1641 -293.9219 171.2695 -277.1289 160.793 -260.0859 C 155.4961 -251.4648 149.9102 -243.0312 144.6016 -234.4141 C 139.3477 -225.8789 134.3477 -217.1953 129.2461 -208.5664 C 124.2852 -200.1797 119.9883 -191.4336 115.1484 -182.9766 C 110.0508 -174.0742 105.582 -164.8437 100.5547 -155.9023 C 90.6836 -138.3437 81.0195 -120.6445 70.3594 -103.543 C 65.0625 -95.0469 59.5 -86.7188 54.293 -78.1602 C 49.5 -70.2852 44.8203 -62.3281 40.2461 -54.3242 C 37.6719 -49.8203 35.082 -45.3438 32.2344 -41.0039 C 29.2461 -36.4453 26.0508 -32.0391 22.8906 -27.6094 C 19.875 -23.3828 17.0547 -19.043 14.4062 -14.582 C 13.0234 -12.2461 11.6484 -9.9062 10.2891 -7.5547 C 9.6523 -6.4492 9.0195 -5.3398 8.4102 -4.2187 C 7.5078 -2.5625 6.7266 -.4492 5.3164 .7969 C 4.9226 1.1443 4.4245 1.2781 3.8852 1.2781 C 2.5149 1.2783 .8774 .4148 0 0 Z "/>
<path transform="matrix(1,0,0,1,1330.3594,1073.7774)" d="M 0 0 C -3.7305 -1.7461 -6.8945 -4.7187 -9.8945 -7.4648 C -12.375 -9.7383 -14.6836 -12.2109 -16.8477 -14.7812 C -17.9382 -16.0746 -19.009 -17.379 -20.0574 -18.7029 C -24.3728 -22.6964 -28.2595 -27.1331 -31.558 -31.9969 C -33.3389 -34.7008 -35.0214 -37.4459 -36.6563 -40.25 C -38.6211 -43.6211 -40.9414 -47.0781 -42.1641 -50.7813 C -42.4297 -51.5898 -42.4453 -52.4805 -41.4414 -52.6367 C -40.6367 -52.5898 -39.8828 -52.3633 -39.1758 -51.9609 C -38.6393 -51.6854 -38.1146 -51.3912 -37.6013 -51.0787 C -37.8223 -51.6243 -38.0437 -52.1697 -38.2654 -52.7149 C -38.8423 -54.1094 -39.4192 -55.5039 -39.9961 -56.8984 C -40.6914 -58.5781 -41.4219 -60.2383 -42.0781 -61.9336 C -42.3867 -62.7344 -42.7148 -63.5117 -42.9766 -64.3281 C -43.3672 -65.543 -43.2461 -66.6055 -42.8477 -67.7734 C -42.8125 -68.3984 -42.4844 -68.7305 -41.8555 -68.7656 C -40.5 -68.9766 -38.5781 -67.6445 -37.5469 -67.0234 C -33.9974 -64.8859 -30.7238 -62.4126 -27.6506 -59.7103 C -27.5771 -60.6423 -26.8623 -60.9674 -25.5469 -60.6289 C -24.3867 -60.2266 -23.293 -59.6914 -22.2617 -59.0156 C -19.8672 -57.5625 -17.6523 -55.7734 -15.5352 -53.9492 C -11.9961 -50.9141 -8.6758 -47.5898 -5.6367 -44.0547 C -4.332 -42.5508 -3.0977 -40.9922 -1.9375 -39.375 C -.7891 -37.75 .4492 -35.9727 1.0391 -34.0391 C 2.5859 -28.9883 3.9922 -23.8711 5.75 -18.8867 C 6.0859 -17.9336 6.0703 -16.875 4.8945 -16.6953 C 3.9453 -16.7539 3.0547 -17.0195 2.2227 -17.4922 C .8555 -18.1953 -.4453 -18.9961 -1.6875 -19.9023 C -4.9742 -22.2224 -8.0082 -24.9231 -10.8767 -27.7429 C -10.76 -27.4353 -10.6434 -27.1278 -10.5273 -26.8203 C -8.8353 -22.3584 -6.8525 -17.9127 -5.7731 -13.2621 C -4.0898 -11.5366 -2.4847 -9.7322 -.9961 -7.8398 C -.082 -6.6992 .7656 -5.5078 1.5469 -4.2695 C 2.0781 -3.3906 3.2031 -1.7578 3.0273 -.6016 C 3.0078 -.4648 3.0156 -.3281 3.0195 -.1914 C 3.0256 .4462 2.6475 .653 2.1519 .653 C 1.3873 .653 .3436 .1611 0 0 Z "/>
</g>
<clipPath id="cp1">
<path d="M 737.473 129.411 L 1335.41 129.411 L 1335.41 2015.66 L 737.473 2015.66 Z "/>
</clipPath>
<g clip-path="url(#cp1)">
<path transform="matrix(1,0,0,1,753.8833,2015.239)" d="M 0 0 C .0156 -2.0547 .2227 -3.8398 .207 -5.7148 C -.2048 -53.6975 -.6168 -101.7002 -1.0287 -149.6819 C .4753 -152.1814 1.9813 -154.676 3.4922 -157.1602 C 8.6758 -165.5937 13.8906 -173.8516 19.043 -182.2852 C 24.6719 -191.3477 30.2383 -200.6797 35.832 -209.832 C 40.2539 -217.0117 44.7109 -223.9219 49.0977 -231.1016 C 53.4844 -238.2812 57.8398 -245.7266 62.2617 -252.9922 C 66.6484 -260.1719 71.1016 -267.082 75.5234 -274.2617 C 80.6445 -282.6094 85.7305 -291.2187 90.8828 -299.5664 C 94.793 -306.0273 98.7695 -312.2187 102.7148 -318.6797 C 107.5781 -326.6641 112.4102 -334.7422 117.3086 -342.7266 C 120.9648 -348.7383 124.6875 -354.5742 128.3437 -360.5859 C 134.2305 -370.0977 140.0469 -379.7852 145.8984 -389.3867 C 150.3164 -396.5664 154.7734 -403.4766 159.1602 -410.6562 C 164.8242 -419.8984 170.418 -429.3203 176.0469 -438.5625 C 179.8945 -444.8437 183.8086 -450.7695 187.6562 -456.9609 C 192.0781 -464.2266 196.4336 -471.5859 200.8203 -478.8516 C 204.4453 -484.7734 208.1367 -490.5195 211.7617 -496.4414 C 216.2148 -503.7109 220.5977 -511.2461 225.0508 -518.5156 C 228.6758 -524.4375 232.3672 -530.0898 235.9922 -536.0117 C 241.9414 -545.7031 247.8516 -555.7539 253.8008 -565.4453 C 258.9492 -573.8789 264.168 -582.1367 269.3516 -590.5703 C 274.9492 -599.7227 280.5117 -608.9648 286.1094 -618.1172 C 289.957 -624.3984 293.8711 -630.3242 297.7227 -636.6055 C 302.6523 -644.5898 307.5117 -652.8437 312.4414 -660.9219 C 316.2266 -667.2031 320.043 -673.3047 323.8594 -679.4961 C 328.8516 -687.6602 333.8437 -695.918 338.8359 -704.082 C 342.6523 -710.2734 346.4687 -716.375 350.2852 -722.5664 C 354.7383 -729.8359 359.1914 -737.1055 363.6094 -744.3711 C 367.2031 -750.293 370.7969 -756.1289 374.3906 -762.0508 C 378.875 -769.4062 383.3594 -776.7656 387.8437 -784.0352 C 391.6602 -790.2266 395.5078 -796.2383 399.293 -802.4297 C 404.2852 -810.5078 409.2148 -818.7617 414.1758 -826.8359 C 417.832 -832.8477 421.5547 -838.6836 425.2109 -844.6953 C 431.1562 -854.4766 437.0703 -864.4337 443.0156 -874.125 C 448.168 -882.5587 453.3867 -890.8165 458.5703 -899.2501 C 464.168 -908.4025 469.7305 -917.6447 475.3281 -926.797 C 478.5078 -932.004 481.6875 -937.0275 484.8711 -941.965 C 485.3789 -942.7736 486.0234 -942.8673 486.6641 -943.5001 C 486.7461 -945.1056 486.7344 -946.4454 486.7227 -947.7853 C 485.0625 -949.7345 483.3398 -951.4142 481.7695 -953.8087 C 478.0117 -959.5822 474.3164 -965.7072 470.5898 -971.5665 C 465.9453 -978.9337 461.3047 -986.3048 456.6289 -993.5821 C 452.8711 -999.3516 449.1172 -1004.9454 445.3906 -1010.8946 C 439.2773 -1020.4805 433.1953 -1030.3359 427.1133 -1040.0117 C 421.7852 -1048.3594 416.4258 -1056.5234 411.1328 -1064.8672 C 405.3477 -1073.8359 399.625 -1083.0703 393.8711 -1092.125 C 389.3281 -1099.2266 384.7852 -1106.0586 380.2422 -1113.1602 C 375.7305 -1120.2617 371.25 -1127.6328 366.707 -1134.8242 C 362.1953 -1141.9258 357.6211 -1148.7617 353.0781 -1155.8633 C 346.5078 -1166.25 339.9375 -1176.8164 333.3672 -1187.2031 C 328.8867 -1194.2149 324.3477 -1200.8711 319.8711 -1207.9727 C 313.7578 -1217.5625 307.6758 -1227.418 301.5937 -1237.0938 C 296.2656 -1245.4375 290.9062 -1253.6055 285.6094 -1261.9492 C 279.8281 -1270.9141 274.1055 -1280.1484 268.3516 -1289.2031 C 263.8086 -1296.3047 259.2656 -1303.1406 254.7227 -1310.2422 C 250.2109 -1317.3438 245.7305 -1324.7149 241.1875 -1331.8164 C 236.6758 -1339.0078 232.1016 -1345.8399 227.5586 -1352.9414 C 220.9883 -1363.3281 214.418 -1373.8945 207.8477 -1384.2813 C 203.3672 -1391.2969 198.8281 -1397.9531 194.3477 -1405.0547 C 188.2383 -1414.6406 182.1875 -1424.4961 176.0742 -1434.1758 C 170.7461 -1442.5195 165.3867 -1450.6836 160.0898 -1459.0313 C 154.3047 -1467.9961 148.5859 -1477.2305 142.832 -1486.2852 C 138.2891 -1493.3867 133.7461 -1500.2188 129.2031 -1507.3242 C 124.6914 -1514.4258 120.2109 -1521.793 115.668 -1528.8984 C 111.1914 -1535.9102 106.6484 -1542.6563 102.1719 -1549.668 C 96.0586 -1559.3438 90.0078 -1569.1992 83.8945 -1578.8789 C 78.0117 -1588.1094 72.0977 -1597.2539 66.2109 -1606.4844 C 59.707 -1616.6953 53.2344 -1626.9922 46.7305 -1637.2031 C 42.7734 -1643.418 38.7578 -1649.2734 34.8008 -1655.4883 C 29.7383 -1663.3867 24.7344 -1671.5586 19.6641 -1679.5469 C 15.7734 -1685.7617 11.8516 -1691.7969 7.9297 -1697.9219 C 3.3555 -1705.1133 -1.2188 -1712.2149 -5.7656 -1719.4961 C -8.7185 -1724.1113 -11.674 -1728.7844 -14.6299 -1733.4685 C -15.0463 -1781.9453 -15.4625 -1830.4089 -15.8789 -1878.8867 C -15.8906 -1880.3164 -16.0313 -1881.7422 -16.1094 -1883.1719 C -16.1484 -1883.9727 -16.1523 -1884.7774 -16.1602 -1885.5781 C -15.8359 -1885.4024 -15.4492 -1885.4063 -15.1875 -1884.9649 C -12.9961 -1881.2344 -10.8984 -1877.2344 -8.707 -1873.6836 C -4.1953 -1866.582 .3789 -1859.7461 4.9219 -1852.6445 C 10.1836 -1844.3906 15.418 -1835.8633 20.7109 -1827.6094 C 25.2227 -1820.5078 29.7969 -1813.5859 34.3086 -1806.4805 C 40.3555 -1797.0742 46.3359 -1787.4844 52.3516 -1777.9844 C 56.1758 -1771.9492 60.0313 -1766.0899 63.8594 -1760.0508 C 68.4648 -1752.8633 73.0742 -1745.6719 77.6836 -1738.3906 C 81.3789 -1732.5313 85.0742 -1726.6719 88.7656 -1720.9024 C 93.3125 -1713.6211 97.8867 -1706.5195 102.4609 -1699.3281 C 106.3828 -1693.2031 110.3047 -1687.168 114.1953 -1680.9531 C 119.2656 -1672.9649 124.2695 -1664.793 129.332 -1656.8945 C 133.2891 -1650.6797 137.3047 -1644.8242 141.2617 -1638.6094 C 147.7656 -1628.3984 154.2383 -1618.1016 160.7422 -1607.8906 C 166.6289 -1598.6602 172.543 -1589.5156 178.4258 -1580.2852 C 184.5391 -1570.6055 190.5898 -1560.75 196.7031 -1551.0742 C 201.1797 -1544.0625 205.7227 -1537.3164 210.1992 -1530.3047 C 214.7422 -1523.1992 219.2227 -1515.832 223.7344 -1508.7305 C 228.2773 -1501.6289 232.8203 -1494.793 237.3633 -1487.6914 C 243.1172 -1478.6367 248.8359 -1469.4024 254.6211 -1460.4375 C 259.918 -1452.0899 265.2773 -1443.9258 270.6055 -1435.582 C 276.7187 -1425.9024 282.7695 -1416.0469 288.8789 -1406.4609 C 293.3594 -1399.3594 297.8984 -1392.7031 302.3789 -1385.6875 C 308.9492 -1375.3008 315.5195 -1364.7383 322.0898 -1354.3477 C 326.6328 -1347.2461 331.207 -1340.4141 335.7187 -1333.2227 C 340.2617 -1326.1211 344.7422 -1318.75 349.2539 -1311.6484 C 353.7969 -1304.5469 358.3398 -1297.7109 362.8828 -1290.6094 C 368.6367 -1281.5547 374.3594 -1272.3203 380.1406 -1263.3555 C 385.4375 -1255.0117 390.7969 -1246.8438 396.125 -1238.5 C 402.207 -1228.8242 408.2891 -1218.9688 414.4023 -1209.3789 C 418.8789 -1202.2774 423.418 -1195.6211 427.8984 -1188.6094 C 434.4687 -1178.2227 441.0391 -1167.6563 447.6094 -1157.2695 C 452.1523 -1150.168 456.7266 -1143.332 461.2383 -1136.2305 C 465.7812 -1129.0391 470.2617 -1121.668 474.7734 -1114.5664 C 479.3164 -1107.4649 483.8594 -1100.6328 488.4023 -1093.5313 C 494.1562 -1084.4766 499.8789 -1075.2422 505.6641 -1066.2734 C 510.957 -1057.9297 516.3164 -1049.7656 521.6445 -1041.418 C 527.7266 -1031.7422 533.8086 -1021.8868 539.9219 -1012.3008 C 543.6484 -1006.3516 547.4023 -1000.7579 551.1602 -994.9883 C 555.8359 -987.7111 560.4766 -980.34 565.1211 -972.9728 C 568.8477 -967.1134 572.543 -960.9884 576.3008 -955.2189 C 577.8711 -952.8204 579.5937 -951.1407 581.2539 -949.1915 C 581.2656 -947.8517 581.2773 -946.5118 581.1953 -944.9064 C 580.5547 -944.2736 579.9102 -944.1798 579.4023 -943.3712 C 576.2187 -938.4337 573.0391 -933.4103 569.8594 -928.2032 C 564.2617 -919.0509 558.6992 -909.8087 553.1016 -900.6564 C 547.918 -892.2228 542.6992 -883.965 537.5469 -875.5314 C 531.6016 -865.84 525.6875 -855.8828 519.7422 -846.1016 C 516.0859 -840.0898 512.3633 -834.2539 508.707 -828.2422 C 503.7461 -820.168 498.8164 -811.9141 493.8242 -803.8359 C 490.0391 -797.6445 486.1914 -791.6328 482.375 -785.4414 C 477.8906 -778.1719 473.4062 -770.8125 468.9219 -763.457 C 465.3281 -757.5352 461.7344 -751.6992 458.1406 -745.7773 C 453.7227 -738.5117 449.2695 -731.2422 444.8164 -723.9727 C 441 -717.7812 437.1836 -711.6797 433.3672 -705.4883 C 428.375 -697.3242 423.3828 -689.0664 418.3906 -680.9023 C 414.5742 -674.7109 410.7578 -668.6094 406.9727 -662.3281 C 402.043 -654.25 397.1836 -645.9961 392.2539 -638.0117 C 388.4023 -631.7305 384.4883 -625.8047 380.6406 -619.5234 C 375.043 -610.3711 369.4805 -601.1289 363.8828 -591.9766 C 358.6992 -583.543 353.4805 -575.2852 348.332 -566.8516 C 342.3828 -557.1602 336.4727 -547.1094 330.5234 -537.4219 C 326.8984 -531.4961 323.207 -525.8437 319.582 -519.9219 C 315.1289 -512.6523 310.7461 -505.1172 306.293 -497.8477 C 302.668 -491.9258 298.9766 -486.1797 295.3516 -480.2578 C 290.9648 -472.9922 286.6094 -465.6328 282.1875 -458.3672 C 278.3398 -452.1758 274.4258 -446.25 270.5781 -439.9687 C 264.9492 -430.7266 259.3555 -421.3047 253.6914 -412.0625 C 249.3047 -404.8828 244.8477 -397.9727 240.4297 -390.793 C 234.5781 -381.1914 228.7617 -371.5039 222.875 -361.9922 C 219.2187 -355.9805 215.4961 -350.1445 211.8398 -344.1328 C 206.9414 -336.1484 202.1094 -328.0703 197.2461 -320.0859 C 193.3008 -313.625 189.3242 -307.4336 185.4141 -300.9727 C 180.2617 -292.625 175.1758 -284.0156 170.0547 -275.668 C 165.6328 -268.4883 161.1797 -261.5781 156.793 -254.3984 C 152.3711 -247.1328 148.0156 -239.6875 143.6289 -232.5078 C 139.2422 -225.3281 134.7852 -218.418 130.3633 -211.2383 C 124.7695 -202.0859 119.2031 -192.7539 113.5742 -183.6914 C 108.4219 -175.2578 103.207 -167 98.0234 -158.5664 C 92.0742 -148.7852 86.1953 -138.8281 80.25 -129.1367 C 76.625 -123.125 72.9336 -117.4688 69.3047 -111.6367 C 64.7578 -104.2773 60.2422 -96.8281 55.6953 -89.3828 C 52.1641 -83.6406 48.6367 -77.8086 45.0742 -71.9727 C 40.5898 -64.6172 36.0742 -57.3477 31.5898 -50.0781 C 27.8359 -43.9766 24.0547 -37.7852 20.3008 -31.6836 C 15.2461 -23.4297 10.1875 -15.2617 5.1953 -6.918 C 3.9258 -4.7656 2.7539 -2.168 1.5469 .1641 C 1.4727 .1641 1.4023 .168 1.3281 .168 C .918 .168 .4922 .1484 0 0 Z " fill="#ffffff"/>
</g>
</g>
</svg>
