<?xml version="1.0" encoding="UTF-8" standalone="no"?>
<!DOCTYPE svg PUBLIC "-//W3C//DTD SVG 1.1//EN" "http://www.w3.org/Graphics/SVG/1.1/DTD/svg11.dtd">
<svg xmlns="http://www.w3.org/2000/svg" xmlns:xlink="http://www.w3.org/1999/xlink" version="1.1" width="2100" height="2100" viewBox="0 0 2100 2100">
<g enable-background="new">
<clipPath id="cp0">
<path d="M 737.458 129.411 L 1335.4 129.411 L 1335.4 2015.66 L 737.458 2015.66 Z "/>
</clipPath>
<g clip-path="url(#cp0)">
<path transform="matrix(1,0,0,1,1318.9854,2015.239)" d="M 0 0 C -.0156 -2.0547 -.2227 -3.8398 -.207 -5.7148 C .2048 -53.6975 .6168 -101.7002 1.0287 -149.6819 C -.4753 -152.1814 -1.9813 -154.676 -3.4922 -157.1602 C -8.6758 -165.5937 -13.8906 -173.8516 -19.043 -182.2852 C -24.6719 -191.3477 -30.2383 -200.6797 -35.832 -209.832 C -40.2539 -217.0117 -44.7109 -223.9219 -49.0977 -231.1016 C -53.4844 -238.2812 -57.8398 -245.7266 -62.2617 -252.9922 C -66.6484 -260.1719 -71.1016 -267.082 -75.5234 -274.2617 C -80.6445 -282.6094 -85.7305 -291.2187 -90.8828 -299.5664 C -94.793 -306.0273 -98.7695 -312.2187 -102.7148 -318.6797 C -107.5781 -326.6641 -112.4102 -334.7422 -117.3086 -342.7266 C -120.9648 -348.7383 -124.6875 -354.5742 -128.3437 -360.5859 C -134.2305 -370.0977 -140.0469 -379.7852 -145.8984 -389.3867 C -150.3164 -396.5664 -154.7734 -403.4766 -159.1602 -410.6562 C -164.8242 -419.8984 -170.418 -429.3203 -176.0469 -438.5625 C -179.8945 -444.8437 -183.8086 -450.7695 -187.6562 -456.9609 C -192.0781 -464.2266 -196.4336 -471.5859 -200.8203 -478.8516 C -204.4453 -484.7734 -208.1367 -490.5195 -211.7617 -496.4414 C -216.2148 -503.7109 -220.5977 -511.2461 -225.0508 -518.5156 C -228.6758 -524.4375 -232.3672 -530.0898 -235.9922 -536.0117 C -241.9414 -545.7031 -247.8516 -555.7539 -253.8008 -565.4453 C -258.9492 -573.8789 -264.168 -582.1367 -269.3516 -590.5703 C -274.9492 -599.7227 -280.5117 -608.9648 -286.1094 -618.1172 C -289.957 -624.3984 -293.8711 -630.3242 -297.7227 -636.6055 C -302.6523 -644.5898 -307.5117 -652.8437 -312.4414 -660.9219 C -316.2266 -667.2031 -320.043 -673.3047 -323.8594 -679.4961 C -328.8516 -687.6602 -333.8437 -695.918 -338.8359 -704.082 C -342.6523 -710.2734 -346.4687 -716.375 -350.2852 -722.5664 C -354.7383 -729.8359 -359.1914 -737.1055 -363.6094 -744.3711 C -367.2031 -750.293 -370.7969 -756.1289 -374.3906 -762.0508 C -378.875 -769.4062 -383.3594 -776.7656 -387.8437 -784.0352 C -391.6602 -790.2266 -395.5078 -796.2383 -399.293 -802.4297 C -404.2852 -810.5078 -409.2148 -818.7617 -414.1758 -826.8359 C -417.832 -832.8477 -421.5547 -838.6836 -425.2109 -844.6953 C -431.1562 -854.4766 -437.0703 -864.4337 -443.0156 -874.125 C -448.168 -882.5587 -453.3867 -890.8165 -458.5703 -899.2501 C -464.168 -908.4025 -469.7305 -917.6447 -475.3281 -926.797 C -478.5078 -932.004 -481.6875 -937.0275 -484.8711 -941.965 C -485.3789 -942.7736 -486.0234 -942.8673 -486.6641 -943.5001 C -486.7461 -945.1056 -486.7344 -946.4454 -486.7227 -947.7853 C -485.0625 -949.7345 -483.3398 -951.4142 -481.7695 -953.8087 C -478.0117 -959.5822 -474.3164 -965.7072 -470.5898 -971.5665 C -465.9453 -978.9337 -461.3047 -986.3048 -456.6289 -993.5821 C -452.8711 -999.3516 -449.1172 -1004.9454 -445.3906 -1010.8946 C -439.2773 -1020.4805 -433.1953 -1030.3359 -427.1133 -1040.0117 C -421.7852 -1048.3594 -416.4258 -1056.5234 -411.1328 -1064.8672 C -405.3477 -1073.8359 -399.625 -1083.0703 -393.8711 -1092.125 C -389.3281 -1099.2266 -384.7852 -1106.0586 -380.2422 -1113.1602 C -375.7305 -1120.2617 -371.25 -1127.6328 -366.707 -1134.8242 C -362.1953 -1141.9258 -357.6211 -1148.7617 -353.0781 -1155.8633 C -346.5078 -1166.25 -339.9375 -1176.8164 -333.3672 -1187.2031 C -328.8867 -1194.2149 -324.3477 -1200.8711 -319.8711 -1207.9727 C -313.7578 -1217.5625 -307.6758 -1227.418 -301.5937 -1237.0938 C -296.2656 -1245.4375 -290.9062 -1253.6055 -285.6094 -1261.9492 C -279.8281 -1270.9141 -274.1055 -1280.1484 -268.3516 -1289.2031 C -263.8086 -1296.3047 -259.2656 -1303.1406 -254.7227 -1310.2422 C -250.2109 -1317.3438 -245.7305 -1324.7149 -241.1875 -1331.8164 C -236.6758 -1339.0078 -232.1016 -1345.8399 -227.5586 -1352.9414 C -220.9883 -1363.3281 -214.418 -1373.8945 -207.8477 -1384.2813 C -203.3672 -1391.2969 -198.8281 -1397.9531 -194.3477 -1405.0547 C -188.2383 -1414.6406 -182.1875 -1424.4961 -176.0742 -1434.1758 C -170.7461 -1442.5195 -165.3867 -1450.6836 -160.0898 -1459.0313 C -154.3047 -1467.9961 -148.5859 -1477.2305 -142.832 -1486.2852 C -138.2891 -1493.3867 -133.7461 -1500.2188 -129.2031 -1507.3242 C -124.6914 -1514.4258 -120.2109 -1521.793 -115.668 -1528.8984 C -111.1914 -1535.9102 -106.6484 -1542.6563 -102.1719 -1549.668 C -96.0586 -1559.3438 -90.0078 -1569.1992 -83.8945 -1578.8789 C -78.0117 -1588.1094 -72.0977 -1597.2539 -66.2109 -1606.4844 C -59.707 -1616.6953 -53.2344 -1626.9922 -46.7305 -1637.2031 C -42.7734 -1643.418 -38.7578 -1649.2734 -34.8008 -1655.4883 C -29.7383 -1663.3867 -24.7344 -1671.5586 -19.6641 -1679.5469 C -15.7734 -1685.7617 -11.8516 -1691.7969 -7.9297 -1697.9219 C -3.3555 -1705.1133 1.2188 -1712.2149 5.7656 -1719.4961 C 8.7185 -1724.1113 11.674 -1728.7844 14.6299 -1733.4685 C 15.0463 -1781.9453 15.4625 -1830.4089 15.8789 -1878.8867 C 15.8906 -1880.3164 16.0313 -1881.7422 16.1094 -1883.1719 C 16.1484 -1883.9727 16.1523 -1884.7774 16.1602 -1885.5781 C 15.8359 -1885.4024 15.4492 -1885.4063 15.1875 -1884.9649 C 12.9961 -1881.2344 10.8984 -1877.2344 8.707 -1873.6836 C 4.1953 -1866.582 -.3789 -1859.7461 -4.9219 -1852.6445 C -10.1836 -1844.3906 -15.418 -1835.8633 -20.7109 -1827.6094 C -25.2227 -1820.5078 -29.7969 -1813.5859 -34.3086 -1806.4805 C -40.3555 -1797.0742 -46.3359 -1787.4844 -52.3516 -1777.9844 C -56.1758 -1771.9492 -60.0313 -1766.0899 -63.8594 -1760.0508 C -68.4648 -1752.8633 -73.0742 -1745.6719 -77.6836 -1738.3906 C -81.3789 -1732.5313 -85.0742 -1726.6719 -88.7656 -1720.9024 C -93.3125 -1713.6211 -97.8867 -1706.5195 -102.4609 -1699.3281 C -106.3828 -1693.2031 -110.3047 -1687.168 -114.1953 -1680.9531 C -119.2656 -1672.9649 -124.2695 -1664.793 -129.332 -1656.8945 C -133.2891 -1650.6797 -137.3047 -1644.8242 -141.2617 -1638.6094 C -147.7656 -1628.3984 -154.2383 -1618.1016 -160.7422 -1607.8906 C -166.6289 -1598.6602 -172.543 -1589.5156 -178.4258 -1580.2852 C -184.5391 -1570.6055 -190.5898 -1560.75 -196.7031 -1551.0742 C -201.1797 -1544.0625 -205.7227 -1537.3164 -210.1992 -1530.3047 C -214.7422 -1523.1992 -219.2227 -1515.832 -223.7344 -1508.7305 C -228.2773 -1501.6289 -232.8203 -1494.793 -237.3633 -1487.6914 C -243.1172 -1478.6367 -248.8359 -1469.4024 -254.6211 -1460.4375 C -259.918 -1452.0899 -265.2773 -1443.9258 -270.6055 -1435.582 C -276.7187 -1425.9024 -282.7695 -1416.0469 -288.8789 -1406.4609 C -293.3594 -1399.3594 -297.8984 -1392.7031 -302.3789 -1385.6875 C -308.9492 -1375.3008 -315.5195 -1364.7383 -322.0898 -1354.3477 C -326.6328 -1347.2461 -331.207 -1340.4141 -335.7187 -1333.2227 C -340.2617 -1326.1211 -344.7422 -1318.75 -349.2539 -1311.6484 C -353.7969 -1304.5469 -358.3398 -1297.7109 -362.8828 -1290.6094 C -368.6367 -1281.5547 -374.3594 -1272.3203 -380.1406 -1263.3555 C -385.4375 -1255.0117 -390.7969 -1246.8438 -396.125 -1238.5 C -402.207 -1228.8242 -408.2891 -1218.9688 -414.4023 -1209.3789 C -418.8789 -1202.2774 -423.418 -1195.6211 -427.8984 -1188.6094 C -434.4687 -1178.2227 -441.0391 -1167.6563 -447.6094 -1157.2695 C -452.1523 -1150.168 -456.7266 -1143.332 -461.2383 -1136.2305 C -465.7812 -1129.0391 -470.2617 -1121.668 -474.7734 -1114.5664 C -479.3164 -1107.4649 -483.8594 -1100.6328 -488.4023 -1093.5313 C -494.1562 -1084.4766 -499.8789 -1075.2422 -505.6641 -1066.2734 C -510.957 -1057.9297 -516.3164 -1049.7656 -521.6445 -1041.418 C -527.7266 -1031.7422 -533.8086 -1021.8868 -539.9219 -1012.3008 C -543.6484 -1006.3516 -547.4023 -1000.7579 -551.1602 -994.9883 C -555.8359 -987.7111 -560.4766 -980.34 -565.1211 -972.9728 C -568.8477 -967.1134 -572.543 -960.9884 -576.3008 -955.2189 C -577.8711 -952.8204 -579.5937 -951.1407 -581.2539 -949.1915 C -581.2656 -947.8517 -581.2773 -946.5118 -581.1953 -944.9064 C -580.5547 -944.2736 -579.9102 -944.1798 -579.4023 -943.3712 C -576.2187 -938.4337 -573.0391 -933.4103 -569.8594 -928.2032 C -564.2617 -919.0509 -558.6992 -909.8087 -553.1016 -900.6564 C -547.918 -892.2228 -542.6992 -883.965 -537.5469 -875.5314 C -531.6016 -865.84 -525.6875 -855.8828 -519.7422 -846.1016 C -516.0859 -840.0898 -512.3633 -834.2539 -508.707 -828.2422 C -503.7461 -820.168 -498.8164 -811.9141 -493.8242 -803.8359 C -490.0391 -797.6445 -486.1914 -791.6328 -482.375 -785.4414 C -477.8906 -778.1719 -473.4062 -770.8125 -468.9219 -763.457 C -465.3281 -757.5352 -461.7344 -751.6992 -458.1406 -745.7773 C -453.7227 -738.5117 -449.2695 -731.2422 -444.8164 -723.9727 C -441 -717.7812 -437.1836 -711.6797 -433.3672 -705.4883 C -428.375 -697.3242 -423.3828 -689.0664 -418.3906 -680.9023 C -414.5742 -674.7109 -410.7578 -668.6094 -406.9727 -662.3281 C -402.043 -654.25 -397.1836 -645.9961 -392.2539 -638.0117 C -388.4023 -631.7305 -384.4883 -625.8047 -380.6406 -619.5234 C -375.043 -610.3711 -369.4805 -601.1289 -363.8828 -591.9766 C -358.6992 -583.543 -353.4805 -575.2852 -348.332 -566.8516 C -342.3828 -557.1602 -336.4727 -547.1094 -330.5234 -537.4219 C -326.8984 -531.4961 -323.207 -525.8437 -319.582 -519.9219 C -315.1289 -512.6523 -310.7461 -505.1172 -306.293 -497.8477 C -302.668 -491.9258 -298.9766 -486.1797 -295.3516 -480.2578 C -290.9648 -472.9922 -286.6094 -465.6328 -282.1875 -458.3672 C -278.3398 -452.1758 -274.4258 -446.25 -270.5781 -439.9687 C -264.9492 -430.7266 -259.3555 -421.3047 -253.6914 -412.0625 C -249.3047 -404.8828 -244.8477 -397.9727 -240.4297 -390.793 C -234.5781 -381.1914 -228.7617 -371.5039 -222.875 -361.9922 C -219.2187 -355.9805 -215.4961 -350.1445 -211.8398 -344.1328 C -206.9414 -336.1484 -202.1094 -328.0703 -197.2461 -320.0859 C -193.3008 -313.625 -189.3242 -307.4336 -185.4141 -300.9727 C -180.2617 -292.625 -175.1758 -284.0156 -170.0547 -275.668 C -165.6328 -268.4883 -161.1797 -261.5781 -156.793 -254.3984 C -152.3711 -247.1328 -148.0156 -239.6875 -143.6289 -232.5078 C -139.2422 -225.3281 -134.7852 -218.418 -130.3633 -211.2383 C -124.7695 -202.0859 -119.2031 -192.7539 -113.5742 -183.6914 C -108.4219 -175.2578 -103.207 -167 -98.0234 -158.5664 C -92.0742 -148.7852 -86.1953 -138.8281 -80.25 -129.1367 C -76.625 -123.125 -72.9336 -117.4688 -69.3047 -111.6367 C -64.7578 -104.2773 -60.2422 -96.8281 -55.6953 -89.3828 C -52.1641 -83.6406 -48.6367 -77.8086 -45.0742 -71.9727 C -40.5898 -64.6172 -36.0742 -57.3477 -31.5898 -50.0781 C -27.8359 -43.9766 -24.0547 -37.7852 -20.3008 -31.6836 C -15.2461 -23.4297 -10.1875 -15.2617 -5.1953 -6.918 C -3.9258 -4.7656 -2.7539 -2.168 -1.5469 .1641 C -1.4727 .1641 -1.4023 .168 -1.3281 .168 C -.918 .168 -.4922 .1484 0 0 Z " fill="#ffffff"/>
</g>
</g>
</svg>
