<?xml version="1.0" encoding="UTF-8" standalone="no"?>
<!DOCTYPE svg PUBLIC "-//W3C//DTD SVG 1.1//EN" "http://www.w3.org/Graphics/SVG/1.1/DTD/svg11.dtd">
<svg xmlns="http://www.w3.org/2000/svg" xmlns:xlink="http://www.w3.org/1999/xlink" version="1.1" width="2100" height="2100" viewBox="0 0 2100 2100">
<g enable-background="new">
<clipPath id="cp0">
<path d="M 721.71 110.153 L 1372.82 110.153 L 1372.82 2043.55 L 721.71 2043.55 Z "/>
</clipPath>
<g clip-path="url(#cp0)">
<path transform="matrix(1,0,0,1,1344.2703,2043.3019)" d="M 0 0 C -.2539 -.1211 -.4844 -.2383 -.6875 -.3359 C -7.2891 -3.582 -13.168 -8.4766 -18.7422 -13.2031 C -24.6055 -18.168 -30.0508 -23.6016 -35.332 -29.1719 C -40.7188 -34.8516 -45.668 -40.9258 -50.3008 -47.2305 C -51.6602 -49.0781 -52.875 -51.0117 -54.0977 -52.9453 C -58.3633 -58.6914 -62.5117 -64.4844 -66.4375 -70.5039 C -78.5117 -84.6445 -90.0039 -99.25 -100.0078 -114.9688 C -105.0898 -122.9531 -109.793 -131.1875 -114.4609 -139.418 C -119.2148 -147.7969 -124.2227 -156.0195 -129.1367 -164.3047 C -137.9062 -179.0781 -146.6562 -193.8828 -156.0859 -208.2461 C -167.0039 -224.2773 -178.6641 -239.9102 -188.5078 -256.6211 C -191.9805 -262.5156 -195.3906 -268.4453 -198.7852 -274.3828 C -201.6992 -278.2656 -204.5742 -282.1758 -207.3828 -286.1367 C -213.3437 -294.5391 -218.8594 -303.2539 -224.2461 -312.0273 C -228.957 -319.707 -233.7734 -327.3164 -238.6172 -334.9141 C -243.9258 -343.2461 -249.293 -351.543 -254.5625 -359.9023 C -259.293 -367.4062 -263.7734 -375.0469 -268.3945 -382.6133 C -277.4531 -397.4492 -286.9766 -412.0195 -296.3164 -426.6875 C -303.3008 -437.6602 -309.6367 -449.0078 -316.0469 -460.3281 C -323.5586 -473.5937 -331.1875 -486.7852 -338.7734 -500.0078 C -346.082 -512.75 -353.6094 -525.332 -361.3164 -537.8359 C -369.6328 -551.3281 -377.3203 -565.2148 -384.9766 -579.0898 C -393.8164 -594.6875 -403.2148 -609.9844 -412.7812 -625.1445 C -417.7617 -633.0391 -422.6836 -640.9766 -427.5508 -648.9375 C -431.8867 -656.0312 -435.9961 -663.2617 -440.3164 -670.3672 C -450.1367 -686.5117 -459.8828 -702.6836 -470.0781 -718.6016 C -474.8437 -726.043 -479.5391 -733.5312 -484.2148 -741.0352 C -489.3437 -749.2617 -494.1797 -757.6484 -499.2227 -765.9219 C -506.2305 -777.4141 -513.7031 -788.5937 -520.3555 -800.3047 C -521.0977 -801.6133 -521.832 -802.9219 -522.5625 -804.2344 C -522.8594 -804.6602 -523.1562 -805.0898 -523.4531 -805.5156 C -524.793 -807.1562 -526.1289 -808.8008 -527.457 -810.4492 C -536.6133 -821.8047 -545.0742 -833.5937 -552.7461 -846.0039 C -559.043 -856.1914 -564.8008 -866.707 -570.1133 -877.4375 C -574.9141 -887.1484 -579.0508 -897.1133 -583.125 -907.1328 C -584.7187 -910.957 -586.3125 -914.7773 -587.918 -918.5937 C -590.043 -922.1055 -592.1289 -925.6445 -594.1719 -929.2187 C -597.75 -935.4727 -601.4375 -941.6641 -604.8633 -948.0078 C -607.8125 -953.4648 -610.543 -959.0312 -613.2461 -964.6133 C -616.1766 -970.6593 -619.176 -976.6941 -622.3107 -982.6461 C -619.3236 -987.8342 -616.3243 -993.0156 -613.3477 -998.207 C -612.3671 -999.9199 -611.3865 -1001.6333 -610.4056 -1003.3467 C -609.6733 -1004.486 -608.9397 -1005.6246 -608.2031 -1006.7617 C -603.3555 -1014.2422 -599.0312 -1022.0273 -594.6172 -1029.7695 C -590.4141 -1037.1406 -585.9297 -1044.3438 -581.8516 -1051.793 C -577.2109 -1060.2617 -572.6172 -1068.7617 -567.5664 -1077 C -562.6992 -1084.9336 -557.5508 -1092.6289 -552.0508 -1100.1367 C -540.5898 -1115.7891 -528.9922 -1131.3438 -518.3867 -1147.5938 C -507.8398 -1163.75 -497.7031 -1180.1719 -487.1406 -1196.3203 C -482.1367 -1203.9649 -477.0859 -1211.5781 -472.0312 -1219.1875 C -466.6055 -1227.3555 -461.4961 -1235.7305 -456.3086 -1244.0469 C -445.8281 -1260.8594 -435.3906 -1277.6992 -424.6445 -1294.3477 C -414.5664 -1309.9649 -403.1523 -1324.6289 -392.543 -1339.875 C -381.3398 -1355.9805 -370.8203 -1372.5352 -360.0742 -1388.9414 C -349.2734 -1405.4297 -338.1836 -1421.7305 -327.1172 -1438.0391 C -321.5117 -1446.3008 -315.8984 -1454.543 -310.7656 -1463.1094 C -305.8711 -1471.2734 -301.1523 -1479.543 -296.3555 -1487.7656 C -291.8086 -1495.5586 -287.2266 -1503.332 -282.5195 -1511.0352 C -277.7695 -1518.8086 -272.6641 -1526.3711 -267.8086 -1534.082 C -257.5937 -1550.3047 -248.418 -1567.1328 -238.3867 -1583.4609 C -228.5117 -1599.5313 -216.6602 -1614.2305 -205.6172 -1629.4805 C -183.4141 -1660.1406 -165.5664 -1693.5742 -145.2461 -1725.4531 C -140.4531 -1732.9649 -135.4844 -1740.3711 -130.7734 -1747.9375 C -125.5547 -1756.3242 -120.4375 -1764.7734 -115.2031 -1773.1524 C -105.0703 -1789.3867 -95.3789 -1805.8867 -85.3438 -1822.1836 C -75.9297 -1837.4727 -65.8984 -1852.375 -56.5625 -1867.7109 C -51.9727 -1875.2539 -47.2422 -1882.707 -42.8125 -1890.3438 C -38.7969 -1897.2695 -34.668 -1904.1836 -29.8555 -1910.5859 C -26.9102 -1914.5039 -23.9023 -1918.5469 -21.3789 -1922.7539 C -20.3867 -1924.4102 -19.5938 -1926.1524 -18.7617 -1927.8906 C -17.9609 -1929.5703 -17.25 -1932.3633 -15.1328 -1932.6914 C -13.8008 -1932.8984 -11.8477 -1931.8945 -10.8047 -1931.3203 C -7.5 -1929.5 -4.4609 -1927.4492 -1.4922 -1925.1133 C 6.5664 -1918.7695 14.0117 -1911.3281 20.3516 -1903.2695 C 23.543 -1899.2149 27.2148 -1894.6563 27.9609 -1889.3906 C 28.3008 -1887 28.2227 -1884.5742 28.1602 -1882.1641 C 27.9219 -1872.9805 27.4375 -1863.8086 27.2305 -1854.6211 C 26.8516 -1837.7383 26.875 -1820.8438 25.4414 -1804 C 24.1328 -1788.6797 21.4922 -1773.5039 19.4414 -1758.2734 C 18.918 -1754.375 18.4219 -1750.4492 17.6133 -1746.5977 C 16.7383 -1742.4453 15.3711 -1738.4336 13.9023 -1734.4609 C 12.5547 -1730.8125 11.0312 -1727.1914 9.0859 -1723.8125 C 6.3906 -1719.125 3.3477 -1714.6797 .1953 -1710.2891 C -5.0273 -1703.0156 -10.6562 -1696.0703 -16.1289 -1688.9883 C -21.8711 -1681.5547 -27.4219 -1673.9649 -33.0859 -1666.4649 C -44.4805 -1651.3711 -56.9883 -1637.1602 -68.7891 -1622.3867 C -80.2773 -1608.0078 -91.9063 -1593.6641 -102.6797 -1578.7344 C -108.0625 -1571.2774 -113.0625 -1563.5352 -118.2227 -1555.9219 C -123.4336 -1548.2305 -128.6797 -1540.5664 -133.8008 -1532.8164 C -138.6211 -1525.5234 -143.5234 -1518.2891 -148.2305 -1510.9258 C -153.0664 -1503.3555 -157.7656 -1495.7031 -162.5352 -1488.0938 C -172.3086 -1472.5039 -182.168 -1456.9609 -191.7227 -1441.2383 C -201.4805 -1425.1758 -210.8281 -1408.8789 -220.7773 -1392.9336 C -226.0977 -1384.4024 -231.5078 -1375.9492 -237.1641 -1367.6367 C -242.5273 -1359.7539 -248.1406 -1352.0352 -253.6445 -1344.25 C -264.0977 -1329.4649 -273.8242 -1314.1992 -284.4648 -1299.5469 C -295.668 -1284.125 -307.1719 -1268.918 -317.9258 -1253.1797 C -328.3164 -1237.9766 -337.8984 -1222.207 -347.4648 -1206.4805 C -357.2031 -1190.4766 -366.4023 -1174.1328 -375.668 -1157.8516 C -384.8633 -1141.6875 -393.582 -1125.2617 -402.0977 -1108.7305 C -406.1602 -1100.8438 -409.8672 -1092.7695 -413.7656 -1084.8047 C -417.7344 -1076.6875 -421.6523 -1068.5508 -425.582 -1060.418 C -429.6094 -1052.0859 -433.7852 -1043.8203 -437.9648 -1035.5625 C -442.5039 -1026.5938 -446.8867 -1017.5391 -451.5703 -1008.6406 C -458.7578 -994.9922 -466.4883 -981.6445 -475.8359 -969.3398 C -479.2969 -964.7852 -482.6445 -960.3086 -485.5195 -955.3594 C -484.8789 -954.4492 -484.25 -953.5312 -483.6289 -952.6016 C -481.875 -949.9648 -480.5469 -947.0625 -479.1055 -944.2539 C -478.1328 -942.3516 -477.1172 -940.4687 -476.0859 -938.5977 C -469.25 -926.5273 -462.0273 -914.6914 -454.6328 -902.957 C -449.9609 -895.5391 -445.3906 -888.0547 -440.75 -880.6172 C -439.6602 -879.1016 -438.5781 -877.5859 -437.5 -876.0664 C -434.3672 -871.6602 -431.3359 -867.1875 -428.3672 -862.6719 C -425.9648 -859.0195 -423.6953 -855.293 -422.1445 -851.1797 C -421.9766 -850.8086 -421.8672 -850.4414 -421.8125 -850.0781 C -421.2383 -849.2773 -420.6641 -848.4727 -420.0859 -847.6719 C -413.0625 -837.8945 -406.3672 -827.918 -399.6914 -817.8984 C -392.5664 -807.2539 -385.3477 -796.6523 -378.5703 -785.7773 C -376.793 -783.2031 -375.2109 -780.5352 -373.7227 -777.8164 C -373.1641 -776.8711 -372.6055 -775.9219 -372.0508 -774.9687 C -367.5273 -767.1758 -363.3281 -759.2344 -359.5703 -751.0547 C -357.3945 -747.2812 -355.207 -743.5117 -353.0234 -739.7422 C -349.668 -735.3281 -346.3242 -730.8984 -343.043 -726.4258 C -338.0977 -719.6875 -333.5391 -712.6445 -329.1328 -705.5469 C -321.6992 -693.5625 -315.4531 -680.8984 -308.6836 -668.5352 C -305.3437 -662.7852 -301.8164 -657.1484 -298.1797 -651.582 C -293.0898 -644.1445 -287.6328 -636.9687 -282.5469 -629.5312 C -276.4023 -620.543 -270.3555 -611.4609 -264.6875 -602.1602 C -255.7109 -587.4336 -247.3281 -572.3633 -238.1602 -557.7461 C -228.2266 -541.9062 -217.9453 -526.2461 -208.9648 -509.8359 C -204.4219 -501.5352 -200.4336 -492.9258 -196.1836 -484.4766 C -193.6133 -479.3594 -190.9727 -474.2773 -188.3125 -469.207 C -182.4687 -459.4648 -176.2305 -449.9844 -169.9844 -440.4805 C -161.875 -428.1328 -154.1562 -415.5312 -146.0664 -403.168 C -140.0664 -394.3437 -133.8672 -385.6562 -127.8359 -376.8477 C -120.3711 -365.9531 -113.2578 -354.918 -106.6133 -343.5039 C -100.7734 -333.4766 -94.4609 -323.7305 -88.2891 -313.9062 C -82.9258 -305.3672 -77.5859 -296.8164 -72.0586 -288.3867 C -69.457 -284.5937 -66.8125 -280.8437 -64.0938 -277.1367 C -63.6641 -276.5937 -63.2383 -276.0508 -62.8086 -275.5039 C -56.8047 -268.3867 -50.6836 -261.3711 -44.7617 -254.1797 C -38 -245.9687 -31.5898 -237.5 -25.2148 -228.9844 C -19.2852 -221.0625 -13.4687 -213.0937 -7.9844 -204.8516 C -4.8437 -200.1328 -2.1406 -195.0859 .582 -190.1211 C 2.293 -187 3.9687 -183.8594 5.6406 -180.7148 C 5.5547 -176.9258 5.4687 -173.1367 5.418 -169.3477 C 5.3203 -164.4609 5.2109 -159.5703 5.1406 -154.6836 C 4.875 -144.5703 4.6016 -134.4609 4.2031 -124.3477 C 3.8203 -114.5117 3.2812 -104.6797 2.7812 -94.8516 C 1.6953 -73.5977 .9063 -52.3203 .4961 -31.043 C .5 -31.3633 .5078 -31.6836 .5117 -32 C .5039 -31.4727 .4922 -30.9414 .4844 -30.4141 C .4844 -30.4127 .4844 -30.4115 .4844 -30.4102 L .4844 -30.4141 C .4844 -30.4102 .4844 -30.4063 .4844 -30.4023 C .4844 -30.375 .4805 -30.3438 .4805 -30.3164 C .4805 -30.2813 .4805 -30.2461 .4805 -30.2109 C .4768 -29.9667 .4701 -29.7257 .4659 -29.4821 C .4666 -29.4996 .467 -29.5171 .4675 -29.5343 C .4641 -29.3484 .4606 -29.1625 .457 -28.9766 C .4559 -28.8978 .4545 -28.8187 .4529 -28.7395 C .4541 -28.7887 .4554 -28.8378 .457 -28.8867 C .4531 -28.6719 .4492 -28.457 .4453 -28.2422 C .4414 -27.9531 .4336 -27.6641 .4297 -27.3711 C .4336 -27.6602 .4414 -27.9531 .4453 -28.2422 C .4492 -28.3555 .4492 -28.4688 .4531 -28.582 C .4375 -27.7852 .4258 -26.9883 .4102 -26.1914 C .4155 -26.4647 .4192 -26.7361 .4233 -27.0082 C .4127 -26.4054 .4004 -25.8004 .3906 -25.1953 C .3922 -25.2657 .3936 -25.3363 .3948 -25.4067 C .3921 -25.2565 .3894 -25.1063 .3867 -24.9559 C .2639 -17.6638 .1796 -10.3715 .0549 -3.0792 C .0574 -3.1949 .0599 -3.3107 .0625 -3.4258 C .0547 -2.9844 .0469 -2.543 .0391 -2.1016 C .0312 -1.707 .0234 -1.3086 .0156 -.9141 C .0156 -.9531 .0195 -.9961 .0195 -1.0391 C .0195 -.9961 .0156 -.9531 .0156 -.9141 C .0127 -.691 .0078 -.468 .0039 -.245 C .0017 -.1636 0 -.0826 0 0 Z M -425.4492 -1212.4727 C -430.8242 -1204.3594 -436.0586 -1196.1484 -441.6875 -1188.1953 C -447.1953 -1180.4219 -452.6367 -1172.6055 -458.1484 -1164.8359 C -463.6133 -1157.125 -469.1211 -1149.4453 -474.4141 -1141.6133 C -479.7812 -1133.6719 -485.2305 -1125.7774 -490.6914 -1117.8984 C -496.293 -1109.8086 -501.9727 -1101.8008 -508.207 -1094.1758 C -514.043 -1087.0352 -519.582 -1079.6719 -525.293 -1072.4297 C -531.0625 -1065.1094 -536.7656 -1057.8242 -542.043 -1050.1328 C -547.418 -1042.293 -552.3789 -1034.1797 -557.3867 -1026.1094 C -561.8789 -1018.8789 -566.5547 -1011.7969 -571.3516 -1004.7734 C -576.25 -997.6055 -581 -990.3047 -585.9961 -983.207 C -587.6484 -980.8633 -589.2969 -978.5195 -590.9375 -976.1641 C -577.4844 -962.3125 -565.7539 -946.8398 -556.6719 -929.7852 C -550.2383 -917.7031 -544.75 -905.1953 -539.1719 -892.7148 C -535.2539 -883.9492 -531.4961 -875.1055 -527.832 -866.2227 C -527.4258 -865.6055 -527.0195 -864.9844 -526.6133 -864.3633 C -522.5234 -858.3281 -518.3008 -852.3906 -514.0469 -846.4648 C -508.5273 -838.7695 -503.3555 -830.8242 -498.418 -822.7461 C -489.668 -808.4375 -482.4531 -793.2227 -474.4102 -778.5156 C -471.7695 -773.8867 -469.0312 -769.3203 -466.2227 -764.8008 C -465.2266 -763.5937 -464.2383 -762.3906 -463.25 -761.1836 C -457.1406 -753.8672 -450.957 -746.6172 -445.1172 -739.0781 C -437.4102 -729.1289 -430.3906 -718.7227 -423.6055 -708.1289 C -418.7461 -700.543 -413.9219 -692.9297 -409.3867 -685.1523 C -404.7695 -677.2227 -400.3516 -669.1719 -395.8984 -661.1445 C -383.1719 -638.5 -369.9883 -616.1328 -356.875 -593.7109 C -350.3555 -582.5586 -344.0039 -571.3008 -338.2656 -559.7266 C -333.3047 -549.7227 -328.4492 -539.6914 -323.0859 -529.8945 C -318.1836 -521.2812 -313.2031 -512.7148 -307.8086 -504.4023 C -297.5664 -489.4297 -286.4531 -475.0898 -275.9453 -460.3086 C -264.3164 -443.9453 -253 -427.3633 -242.3086 -410.3711 C -237.7422 -403.1133 -233.3867 -395.7383 -229.2031 -388.25 C -224.2187 -379.3359 -219.1211 -370.4766 -214.3398 -361.4492 C -206 -345.7109 -198.1992 -329.7109 -190.4258 -313.6875 C -186.8594 -306.332 -183.2578 -299.0078 -179.418 -291.7891 C -175.8984 -285.6211 -172.2227 -279.543 -168.5781 -273.4414 C -164.125 -265.9805 -159.8672 -258.4102 -155.5937 -250.8477 C -155.1445 -250.0547 -154.6992 -249.2578 -154.25 -248.4648 C -141.3437 -231.7031 -127.8594 -215.3516 -116.1289 -197.7422 C -104.4336 -180.1836 -94.0313 -161.7891 -82.4375 -144.1641 C -74.8164 -132.8164 -67.3242 -121.3828 -59.8828 -109.918 C -58.2969 -119.8125 -57.5664 -129.8672 -57.1172 -139.8398 C -56.4063 -155.8008 -57.1563 -171.793 -56.5742 -187.7539 C -56.3008 -195.2461 -54.6172 -202.7383 -53.1758 -210.0703 C -53.1016 -210.4141 -53.0195 -210.7539 -52.9219 -211.0898 C -57.793 -217.9687 -62.6016 -224.8828 -67.2461 -231.9219 C -75.3203 -244.1523 -82.0469 -257.2109 -89.5977 -269.7695 C -92.1445 -273.5508 -94.6875 -277.332 -97.2227 -281.1211 C -97.1992 -281.0859 -97.1758 -281.0508 -97.1523 -281.0156 C -97.1836 -281.0625 -97.2188 -281.1094 -97.25 -281.1602 C -97.9063 -281.9844 -98.5625 -282.8086 -99.2266 -283.6328 C -113.4492 -300.457 -128.5156 -316.6289 -140.9492 -334.875 C -153.3203 -353.0234 -163.7734 -372.3594 -175.707 -390.7852 C -181.5859 -399.4297 -187.7812 -407.8477 -193.7266 -416.4414 C -201.0898 -427.0781 -208.0117 -438.0156 -214.8281 -449.0078 C -220.6797 -458.4453 -226.3398 -468.0039 -231.7891 -477.6797 C -237.1641 -487.2266 -242.9375 -496.5195 -248.9531 -505.6758 C -255.8047 -515.793 -262.8008 -525.8203 -269.1562 -536.2578 C -276.1172 -547.6914 -282.3125 -559.5586 -288.7461 -571.2891 C -294.6133 -581.7148 -300.5703 -592.082 -306.3789 -602.543 C -322.4844 -630.9297 -341.5312 -657.5781 -356.7266 -686.5078 C -360.168 -693.0586 -363.5195 -699.6641 -366.6914 -706.3477 C -370.0547 -713.4336 -373.2656 -720.5859 -376.7656 -727.6016 C -379.2617 -732.6016 -381.8008 -737.5742 -384.3789 -742.5195 C -390.2031 -752.6914 -396.2227 -762.7422 -401.6211 -773.1562 C -402.5703 -774.9883 -403.4844 -776.8359 -404.375 -778.6914 C -406.4297 -781.668 -408.4297 -784.6797 -410.375 -787.75 C -413.9023 -793.3086 -416.8633 -799.2656 -419.8203 -805.1445 C -421.4375 -808.3672 -423 -811.6211 -424.5703 -814.8672 C -425.2969 -816.3633 -425.9961 -817.875 -426.6953 -819.3867 C -427.2266 -820.6914 -427.7578 -821.9961 -428.2852 -823.3047 C -428.5352 -823.9141 -428.6562 -824.4102 -428.6719 -824.8672 C -432.7578 -831.3242 -436.9648 -837.707 -441.1875 -844.0508 C -440.8086 -843.4805 -440.4258 -842.9102 -440.0469 -842.3398 C -443.4687 -847.4844 -446.8711 -852.6445 -450.2812 -857.793 C -457.8164 -868.9297 -465.8008 -879.7578 -473.4531 -890.8164 C -478.2266 -897.7148 -482.9961 -904.625 -487.5078 -911.707 C -489.0039 -914.0508 -490.4336 -916.4375 -491.8281 -918.8437 C -491.8984 -918.9297 -491.9648 -919.0156 -492.0352 -919.1016 C -495.332 -923.0625 -498.6641 -927.0039 -502.0391 -930.8984 C -502.25 -931.1133 -502.4648 -931.3242 -502.6758 -931.5352 C -505.8437 -934.5742 -509.0117 -937.6133 -512.1562 -940.6797 C -516.6055 -945.0156 -520.8437 -949.5742 -525.1172 -954.0898 C -530.4687 -959.7383 -535.5586 -965.6523 -540.0898 -971.9805 C -542.7344 -975.668 -544.9883 -979.5312 -546.5391 -983.8008 C -547.1875 -985.5781 -547.2031 -987.4453 -546.6094 -989.1953 C -544.9141 -994.2109 -542.293 -998.9375 -539.8086 -1003.5859 C -536.7969 -1009.2266 -533.5898 -1014.6875 -529.5859 -1019.6836 C -524.8281 -1025.6289 -520.1172 -1031.5899 -515.9062 -1037.9453 C -510.9219 -1045.4609 -506.4727 -1053.3242 -502.207 -1061.2656 C -497.5586 -1069.9219 -493.3516 -1078.832 -489.0625 -1087.668 C -484.9023 -1096.2422 -480.7109 -1104.793 -476.5664 -1113.3789 C -468.9258 -1129.1992 -461.1641 -1144.9531 -452.75 -1160.3789 C -443.7422 -1176.8945 -434.6523 -1193.3789 -425.1992 -1209.6484 C -419.4883 -1219.4805 -413.7031 -1229.2695 -407.7656 -1238.9649 C -413.7305 -1230.1836 -419.5859 -1221.3281 -425.4492 -1212.4727 Z M -42.582 -1777.5547 C -52.6953 -1761.5938 -62.1406 -1745.2188 -72.1133 -1729.1719 C -77.3047 -1720.8164 -82.5508 -1712.5 -87.9375 -1704.2734 C -92.7969 -1696.8516 -97.793 -1689.5078 -102.5938 -1682.0547 C -105.1445 -1678.0977 -107.6563 -1674.1172 -110.1484 -1670.1289 C -103.6602 -1678.1563 -97.0078 -1686.0391 -90.5234 -1694.0781 C -83.2969 -1703.0391 -76.3086 -1712.1719 -69.4766 -1721.4375 C -66.1484 -1725.9453 -62.8242 -1730.4609 -59.3633 -1734.8633 C -55.8594 -1739.3164 -52.2031 -1743.668 -48.7734 -1748.1719 C -42.0195 -1757.0469 -35.6484 -1766.1992 -31.3477 -1776.543 C -29.418 -1781.9883 -27.8359 -1787.4844 -26.7148 -1793.168 C -25.9375 -1797.1016 -25.3438 -1801.0742 -24.7891 -1805.0508 C -30.7148 -1795.8789 -36.7422 -1786.7695 -42.582 -1777.5547 Z "/>
<path transform="matrix(1,0,0,1,850.6439,1079.9424)" d="M 0 0 C -3.043 -1.4336 -5.7383 -3.8984 -8.1758 -6.1641 C -10.6523 -8.4648 -13.0078 -10.9336 -15.0977 -13.5937 C -15.9141 -14.6133 -16.6719 -15.6758 -17.3672 -16.7813 C -17.8164 -17.5195 -18.8828 -19.0586 -18.6875 -20.0508 C -18.5664 -20.6719 -18.1484 -21.3047 -17.8789 -21.875 C -17.1289 -23.4844 -16.3242 -25.0664 -15.5469 -26.6602 C -13.8945 -30.0547 -12.2695 -33.4609 -10.5352 -36.8164 C -7.0937 -43.4844 -3.2734 -49.9414 .3828 -56.4922 C 4 -62.9805 8.0781 -69.1992 11.7461 -75.6602 C 15.6016 -82.4375 19.2227 -89.3711 23.3047 -96.0117 C 27.2813 -102.4766 31.4961 -108.75 35.7188 -115.0547 C 40.0547 -121.5234 44.5742 -127.8867 48.7227 -134.4727 C 52.8047 -140.9531 56.3398 -147.75 59.9609 -154.4922 C 63.6367 -161.332 67.3789 -168.1328 71.1133 -174.9414 C 74.9102 -181.8555 79.1758 -188.4648 83.1992 -195.2422 C 87.1992 -201.9766 91.6172 -208.4453 95.625 -215.1797 C 103.6055 -228.5781 111.3516 -242.1211 119.3125 -255.5312 C 127.4102 -269.168 135.1094 -283.0273 143.3203 -296.5977 C 151.6719 -310.3945 160.6602 -323.7969 168.9375 -337.6406 C 173.0859 -344.5742 177.0352 -351.6211 181.0156 -358.6484 C 185.1523 -365.9453 189.3516 -373.1992 193.3477 -380.5742 C 197.2266 -387.7383 200.8203 -395.0508 204.5117 -402.3086 C 208.1953 -409.5469 212.0078 -416.7227 215.7891 -423.9062 C 223.3242 -438.2227 231.457 -452.2031 239.0664 -466.4805 C 242.8594 -473.6016 246.6445 -480.7266 250.7891 -487.6523 C 254.8789 -494.4805 259.2539 -501.1484 263.5781 -507.832 C 267.957 -514.6094 272.5898 -521.2187 276.9453 -528.0117 C 281.2734 -534.7617 285.4844 -541.5781 289.6562 -548.4258 C 298.0781 -562.2578 306.8086 -575.9141 315.5664 -589.5352 C 324.2148 -602.9844 333.2656 -616.1523 342.5352 -629.1797 C 351.6133 -641.9414 361.0508 -654.4336 370.1328 -667.1914 C 379.7187 -680.6602 389.1367 -694.2461 398.5391 -707.8437 C 403.0625 -714.3828 407.4062 -721.0469 411.9336 -727.582 C 416.6055 -734.332 421.4414 -740.9648 425.6875 -748 C 431.1057 -756.9788 436.0364 -766.1953 439.855 -775.97 C 441.3608 -780.2581 442.7349 -784.5953 444.3164 -788.8594 C 446.0859 -793.6172 448.4766 -798.1562 450.5977 -802.7656 C 451.4023 -803.2656 452.2539 -803.3086 453.1523 -802.9062 C 454.7344 -802.3594 456.2266 -801.6289 457.6289 -800.7109 C 462.2031 -797.9375 466.3437 -794.3477 470.25 -790.7187 C 474.8125 -786.4805 479.1523 -781.9297 483.0078 -777.0273 C 484.5117 -775.1484 485.9062 -773.1914 487.1875 -771.1562 C 487.6445 -770.3398 488.0977 -769.5234 488.5547 -768.7109 C 489.1914 -767.5937 489.5469 -766.3984 489.625 -765.1289 C 486.9297 -757.4062 484.7891 -749.5352 482.3633 -741.7344 C 480.0078 -734.1523 476.5742 -727.0586 472.6133 -720.207 C 470.625 -716.7617 468.6367 -713.3125 466.4961 -709.9609 C 464.4141 -706.6953 462.1484 -703.5508 459.8945 -700.4023 C 455.2422 -693.9023 450.4727 -687.4922 445.7734 -681.0273 C 436.1914 -667.8437 426.9687 -654.3984 417.6562 -641.0234 C 412.9375 -634.2461 408.3828 -627.3203 403.375 -620.7539 C 401 -617.6367 398.4961 -614.6211 396.0469 -611.5586 C 393.5391 -608.4219 391.2031 -605.1406 388.8359 -601.8984 C 379.5352 -589.1523 370.5508 -576.1367 361.7461 -563.0469 C 352.7422 -549.6602 343.6172 -536.3711 335.1992 -522.6016 C 330.9492 -515.6523 326.6406 -508.7422 322.3437 -501.8242 C 318.1367 -495.0469 313.9922 -488.2422 309.5195 -481.6367 C 305.0469 -475.0273 300.6133 -468.4023 296.0352 -461.8672 C 291.3984 -455.25 287.0742 -448.4648 283.0117 -441.4844 C 279.1016 -434.7656 275.6016 -427.8164 271.8398 -421.0156 C 267.875 -413.8477 263.7578 -406.7773 259.5898 -399.7227 C 251.3672 -385.8125 243.5391 -371.7187 235.9687 -357.4414 C 232.1836 -350.3047 228.4414 -343.1094 224.2695 -336.1875 C 219.9453 -329.0078 215.5742 -321.8672 211.2969 -314.6602 C 207.2891 -307.8984 203.2734 -301.1406 198.9219 -294.5898 C 194.3828 -287.7617 189.8828 -280.9062 185.2461 -274.1445 C 176.3516 -261.1719 168.25 -247.7383 160.0195 -234.3437 C 155.832 -227.5273 151.4492 -220.8242 147.0742 -214.1289 C 142.9883 -207.875 138.9961 -201.5547 134.9102 -195.2969 C 130.5703 -188.6641 126.2852 -181.9805 121.7969 -175.4453 C 117.5156 -169.2148 113.0586 -163.1133 108.7969 -156.8633 C 104.3867 -150.3945 100.1094 -143.8555 96.0039 -137.1875 C 92.1289 -130.8945 88.3281 -124.5547 84.4063 -118.293 C 80.2227 -111.6094 75.6016 -105.2109 70.7852 -98.9727 C 66.1641 -92.9922 61.7188 -86.875 57.1367 -80.8672 C 52.4102 -74.668 47.7461 -68.4727 43.4453 -61.9648 C 39.3516 -55.7695 35.2617 -49.5664 31.082 -43.4258 C 28.6641 -39.8672 26.0625 -36.4375 23.6367 -32.8828 C 21.125 -29.1992 18.6445 -25.4844 16.168 -21.7734 C 13.4648 -17.7305 10.8359 -13.6602 8.3008 -9.5078 C 7.2695 -7.8203 6.2344 -6.1328 5.1992 -4.4492 C 4.3507 -3.0713 3.3912 -1.6831 2.6956 -.21 C 2.6958 -.1975 2.6969 -.1848 2.6992 -.1719 C 2.7798 .3922 2.4543 .5737 2.0026 .5737 C 1.2717 .5739 .21 .099 0 0 Z "/>
</g>
<clipPath id="cp1">
<path d="M 737.458 129.411 L 1335.4 129.411 L 1335.4 2015.66 L 737.458 2015.66 Z "/>
</clipPath>
<g clip-path="url(#cp1)">
<path transform="matrix(1,0,0,1,1318.9854,2015.239)" d="M 0 0 C -.0156 -2.0547 -.2227 -3.8398 -.207 -5.7148 C .2048 -53.6975 .6168 -101.7002 1.0287 -149.6819 C -.4753 -152.1814 -1.9813 -154.676 -3.4922 -157.1602 C -8.6758 -165.5937 -13.8906 -173.8516 -19.043 -182.2852 C -24.6719 -191.3477 -30.2383 -200.6797 -35.832 -209.832 C -40.2539 -217.0117 -44.7109 -223.9219 -49.0977 -231.1016 C -53.4844 -238.2812 -57.8398 -245.7266 -62.2617 -252.9922 C -66.6484 -260.1719 -71.1016 -267.082 -75.5234 -274.2617 C -80.6445 -282.6094 -85.7305 -291.2187 -90.8828 -299.5664 C -94.793 -306.0273 -98.7695 -312.2187 -102.7148 -318.6797 C -107.5781 -326.6641 -112.4102 -334.7422 -117.3086 -342.7266 C -120.9648 -348.7383 -124.6875 -354.5742 -128.3437 -360.5859 C -134.2305 -370.0977 -140.0469 -379.7852 -145.8984 -389.3867 C -150.3164 -396.5664 -154.7734 -403.4766 -159.1602 -410.6562 C -164.8242 -419.8984 -170.418 -429.3203 -176.0469 -438.5625 C -179.8945 -444.8437 -183.8086 -450.7695 -187.6562 -456.9609 C -192.0781 -464.2266 -196.4336 -471.5859 -200.8203 -478.8516 C -204.4453 -484.7734 -208.1367 -490.5195 -211.7617 -496.4414 C -216.2148 -503.7109 -220.5977 -511.2461 -225.0508 -518.5156 C -228.6758 -524.4375 -232.3672 -530.0898 -235.9922 -536.0117 C -241.9414 -545.7031 -247.8516 -555.7539 -253.8008 -565.4453 C -258.9492 -573.8789 -264.168 -582.1367 -269.3516 -590.5703 C -274.9492 -599.7227 -280.5117 -608.9648 -286.1094 -618.1172 C -289.957 -624.3984 -293.8711 -630.3242 -297.7227 -636.6055 C -302.6523 -644.5898 -307.5117 -652.8437 -312.4414 -660.9219 C -316.2266 -667.2031 -320.043 -673.3047 -323.8594 -679.4961 C -328.8516 -687.6602 -333.8437 -695.918 -338.8359 -704.082 C -342.6523 -710.2734 -346.4687 -716.375 -350.2852 -722.5664 C -354.7383 -729.8359 -359.1914 -737.1055 -363.6094 -744.3711 C -367.2031 -750.293 -370.7969 -756.1289 -374.3906 -762.0508 C -378.875 -769.4062 -383.3594 -776.7656 -387.8437 -784.0352 C -391.6602 -790.2266 -395.5078 -796.2383 -399.293 -802.4297 C -404.2852 -810.5078 -409.2148 -818.7617 -414.1758 -826.8359 C -417.832 -832.8477 -421.5547 -838.6836 -425.2109 -844.6953 C -431.1562 -854.4766 -437.0703 -864.4337 -443.0156 -874.125 C -448.168 -882.5587 -453.3867 -890.8165 -458.5703 -899.2501 C -464.168 -908.4025 -469.7305 -917.6447 -475.3281 -926.797 C -478.5078 -932.004 -481.6875 -937.0275 -484.8711 -941.965 C -485.3789 -942.7736 -486.0234 -942.8673 -486.6641 -943.5001 C -486.7461 -945.1056 -486.7344 -946.4454 -486.7227 -947.7853 C -485.0625 -949.7345 -483.3398 -951.4142 -481.7695 -953.8087 C -478.0117 -959.5822 -474.3164 -965.7072 -470.5898 -971.5665 C -465.9453 -978.9337 -461.3047 -986.3048 -456.6289 -993.5821 C -452.8711 -999.3516 -449.1172 -1004.9454 -445.3906 -1010.8946 C -439.2773 -1020.4805 -433.1953 -1030.3359 -427.1133 -1040.0117 C -421.7852 -1048.3594 -416.4258 -1056.5234 -411.1328 -1064.8672 C -405.3477 -1073.8359 -399.625 -1083.0703 -393.8711 -1092.125 C -389.3281 -1099.2266 -384.7852 -1106.0586 -380.2422 -1113.1602 C -375.7305 -1120.2617 -371.25 -1127.6328 -366.707 -1134.8242 C -362.1953 -1141.9258 -357.6211 -1148.7617 -353.0781 -1155.8633 C -346.5078 -1166.25 -339.9375 -1176.8164 -333.3672 -1187.2031 C -328.8867 -1194.2149 -324.3477 -1200.8711 -319.8711 -1207.9727 C -313.7578 -1217.5625 -307.6758 -1227.418 -301.5937 -1237.0938 C -296.2656 -1245.4375 -290.9062 -1253.6055 -285.6094 -1261.9492 C -279.8281 -1270.9141 -274.1055 -1280.1484 -268.3516 -1289.2031 C -263.8086 -1296.3047 -259.2656 -1303.1406 -254.7227 -1310.2422 C -250.2109 -1317.3438 -245.7305 -1324.7149 -241.1875 -1331.8164 C -236.6758 -1339.0078 -232.1016 -1345.8399 -227.5586 -1352.9414 C -220.9883 -1363.3281 -214.418 -1373.8945 -207.8477 -1384.2813 C -203.3672 -1391.2969 -198.8281 -1397.9531 -194.3477 -1405.0547 C -188.2383 -1414.6406 -182.1875 -1424.4961 -176.0742 -1434.1758 C -170.7461 -1442.5195 -165.3867 -1450.6836 -160.0898 -1459.0313 C -154.3047 -1467.9961 -148.5859 -1477.2305 -142.832 -1486.2852 C -138.2891 -1493.3867 -133.7461 -1500.2188 -129.2031 -1507.3242 C -124.6914 -1514.4258 -120.2109 -1521.793 -115.668 -1528.8984 C -111.1914 -1535.9102 -106.6484 -1542.6563 -102.1719 -1549.668 C -96.0586 -1559.3438 -90.0078 -1569.1992 -83.8945 -1578.8789 C -78.0117 -1588.1094 -72.0977 -1597.2539 -66.2109 -1606.4844 C -59.707 -1616.6953 -53.2344 -1626.9922 -46.7305 -1637.2031 C -42.7734 -1643.418 -38.7578 -1649.2734 -34.8008 -1655.4883 C -29.7383 -1663.3867 -24.7344 -1671.5586 -19.6641 -1679.5469 C -15.7734 -1685.7617 -11.8516 -1691.7969 -7.9297 -1697.9219 C -3.3555 -1705.1133 1.2188 -1712.2149 5.7656 -1719.4961 C 8.7185 -1724.1113 11.674 -1728.7844 14.6299 -1733.4685 C 15.0463 -1781.9453 15.4625 -1830.4089 15.8789 -1878.8867 C 15.8906 -1880.3164 16.0313 -1881.7422 16.1094 -1883.1719 C 16.1484 -1883.9727 16.1523 -1884.7774 16.1602 -1885.5781 C 15.8359 -1885.4024 15.4492 -1885.4063 15.1875 -1884.9649 C 12.9961 -1881.2344 10.8984 -1877.2344 8.707 -1873.6836 C 4.1953 -1866.582 -.3789 -1859.7461 -4.9219 -1852.6445 C -10.1836 -1844.3906 -15.418 -1835.8633 -20.7109 -1827.6094 C -25.2227 -1820.5078 -29.7969 -1813.5859 -34.3086 -1806.4805 C -40.3555 -1797.0742 -46.3359 -1787.4844 -52.3516 -1777.9844 C -56.1758 -1771.9492 -60.0313 -1766.0899 -63.8594 -1760.0508 C -68.4648 -1752.8633 -73.0742 -1745.6719 -77.6836 -1738.3906 C -81.3789 -1732.5313 -85.0742 -1726.6719 -88.7656 -1720.9024 C -93.3125 -1713.6211 -97.8867 -1706.5195 -102.4609 -1699.3281 C -106.3828 -1693.2031 -110.3047 -1687.168 -114.1953 -1680.9531 C -119.2656 -1672.9649 -124.2695 -1664.793 -129.332 -1656.8945 C -133.2891 -1650.6797 -137.3047 -1644.8242 -141.2617 -1638.6094 C -147.7656 -1628.3984 -154.2383 -1618.1016 -160.7422 -1607.8906 C -166.6289 -1598.6602 -172.543 -1589.5156 -178.4258 -1580.2852 C -184.5391 -1570.6055 -190.5898 -1560.75 -196.7031 -1551.0742 C -201.1797 -1544.0625 -205.7227 -1537.3164 -210.1992 -1530.3047 C -214.7422 -1523.1992 -219.2227 -1515.832 -223.7344 -1508.7305 C -228.2773 -1501.6289 -232.8203 -1494.793 -237.3633 -1487.6914 C -243.1172 -1478.6367 -248.8359 -1469.4024 -254.6211 -1460.4375 C -259.918 -1452.0899 -265.2773 -1443.9258 -270.6055 -1435.582 C -276.7187 -1425.9024 -282.7695 -1416.0469 -288.8789 -1406.4609 C -293.3594 -1399.3594 -297.8984 -1392.7031 -302.3789 -1385.6875 C -308.9492 -1375.3008 -315.5195 -1364.7383 -322.0898 -1354.3477 C -326.6328 -1347.2461 -331.207 -1340.4141 -335.7187 -1333.2227 C -340.2617 -1326.1211 -344.7422 -1318.75 -349.2539 -1311.6484 C -353.7969 -1304.5469 -358.3398 -1297.7109 -362.8828 -1290.6094 C -368.6367 -1281.5547 -374.3594 -1272.3203 -380.1406 -1263.3555 C -385.4375 -1255.0117 -390.7969 -1246.8438 -396.125 -1238.5 C -402.207 -1228.8242 -408.2891 -1218.9688 -414.4023 -1209.3789 C -418.8789 -1202.2774 -423.418 -1195.6211 -427.8984 -1188.6094 C -434.4687 -1178.2227 -441.0391 -1167.6563 -447.6094 -1157.2695 C -452.1523 -1150.168 -456.7266 -1143.332 -461.2383 -1136.2305 C -465.7812 -1129.0391 -470.2617 -1121.668 -474.7734 -1114.5664 C -479.3164 -1107.4649 -483.8594 -1100.6328 -488.4023 -1093.5313 C -494.1562 -1084.4766 -499.8789 -1075.2422 -505.6641 -1066.2734 C -510.957 -1057.9297 -516.3164 -1049.7656 -521.6445 -1041.418 C -527.7266 -1031.7422 -533.8086 -1021.8868 -539.9219 -1012.3008 C -543.6484 -1006.3516 -547.4023 -1000.7579 -551.1602 -994.9883 C -555.8359 -987.7111 -560.4766 -980.34 -565.1211 -972.9728 C -568.8477 -967.1134 -572.543 -960.9884 -576.3008 -955.2189 C -577.8711 -952.8204 -579.5937 -951.1407 -581.2539 -949.1915 C -581.2656 -947.8517 -581.2773 -946.5118 -581.1953 -944.9064 C -580.5547 -944.2736 -579.9102 -944.1798 -579.4023 -943.3712 C -576.2187 -938.4337 -573.0391 -933.4103 -569.8594 -928.2032 C -564.2617 -919.0509 -558.6992 -909.8087 -553.1016 -900.6564 C -547.918 -892.2228 -542.6992 -883.965 -537.5469 -875.5314 C -531.6016 -865.84 -525.6875 -855.8828 -519.7422 -846.1016 C -516.0859 -840.0898 -512.3633 -834.2539 -508.707 -828.2422 C -503.7461 -820.168 -498.8164 -811.9141 -493.8242 -803.8359 C -490.0391 -797.6445 -486.1914 -791.6328 -482.375 -785.4414 C -477.8906 -778.1719 -473.4062 -770.8125 -468.9219 -763.457 C -465.3281 -757.5352 -461.7344 -751.6992 -458.1406 -745.7773 C -453.7227 -738.5117 -449.2695 -731.2422 -444.8164 -723.9727 C -441 -717.7812 -437.1836 -711.6797 -433.3672 -705.4883 C -428.375 -697.3242 -423.3828 -689.0664 -418.3906 -680.9023 C -414.5742 -674.7109 -410.7578 -668.6094 -406.9727 -662.3281 C -402.043 -654.25 -397.1836 -645.9961 -392.2539 -638.0117 C -388.4023 -631.7305 -384.4883 -625.8047 -380.6406 -619.5234 C -375.043 -610.3711 -369.4805 -601.1289 -363.8828 -591.9766 C -358.6992 -583.543 -353.4805 -575.2852 -348.332 -566.8516 C -342.3828 -557.1602 -336.4727 -547.1094 -330.5234 -537.4219 C -326.8984 -531.4961 -323.207 -525.8437 -319.582 -519.9219 C -315.1289 -512.6523 -310.7461 -505.1172 -306.293 -497.8477 C -302.668 -491.9258 -298.9766 -486.1797 -295.3516 -480.2578 C -290.9648 -472.9922 -286.6094 -465.6328 -282.1875 -458.3672 C -278.3398 -452.1758 -274.4258 -446.25 -270.5781 -439.9687 C -264.9492 -430.7266 -259.3555 -421.3047 -253.6914 -412.0625 C -249.3047 -404.8828 -244.8477 -397.9727 -240.4297 -390.793 C -234.5781 -381.1914 -228.7617 -371.5039 -222.875 -361.9922 C -219.2187 -355.9805 -215.4961 -350.1445 -211.8398 -344.1328 C -206.9414 -336.1484 -202.1094 -328.0703 -197.2461 -320.0859 C -193.3008 -313.625 -189.3242 -307.4336 -185.4141 -300.9727 C -180.2617 -292.625 -175.1758 -284.0156 -170.0547 -275.668 C -165.6328 -268.4883 -161.1797 -261.5781 -156.793 -254.3984 C -152.3711 -247.1328 -148.0156 -239.6875 -143.6289 -232.5078 C -139.2422 -225.3281 -134.7852 -218.418 -130.3633 -211.2383 C -124.7695 -202.0859 -119.2031 -192.7539 -113.5742 -183.6914 C -108.4219 -175.2578 -103.207 -167 -98.0234 -158.5664 C -92.0742 -148.7852 -86.1953 -138.8281 -80.25 -129.1367 C -76.625 -123.125 -72.9336 -117.4688 -69.3047 -111.6367 C -64.7578 -104.2773 -60.2422 -96.8281 -55.6953 -89.3828 C -52.1641 -83.6406 -48.6367 -77.8086 -45.0742 -71.9727 C -40.5898 -64.6172 -36.0742 -57.3477 -31.5898 -50.0781 C -27.8359 -43.9766 -24.0547 -37.7852 -20.3008 -31.6836 C -15.2461 -23.4297 -10.1875 -15.2617 -5.1953 -6.918 C -3.9258 -4.7656 -2.7539 -2.168 -1.5469 .1641 C -1.4727 .1641 -1.4023 .168 -1.3281 .168 C -.918 .168 -.4922 .1484 0 0 Z " fill="#ffffff"/>
</g>
</g>
</svg>
